<svg width="24" height="26" viewBox="0 0 24 26" fill="none" xmlns="http://www.w3.org/2000/svg">
<g clip-path="url(#clip0_144_5247)">
<path d="M24 7.79167V8.83333H0V7.79167C0 4.91563 2.239 2.58333 5 2.58333H6V1.54167C6 0.966667 6.448 0.5 7 0.5C7.552 0.5 8 0.966667 8 1.54167V2.58333H16V1.54167C16 0.966667 16.448 0.5 17 0.5C17.552 0.5 18 0.966667 18 1.54167V2.58333H19C21.761 2.58333 24 4.91563 24 7.79167ZM24 18.2083C24 22.2292 20.859 25.5 17 25.5C13.141 25.5 10 22.2292 10 18.2083C10 14.1875 13.141 10.9167 17 10.9167C20.859 10.9167 24 14.1875 24 18.2083ZM19 18.8188L18 17.7771V16.125C18 15.55 17.552 15.0833 17 15.0833C16.448 15.0833 16 15.55 16 16.125V18.2083C16 18.4844 16.105 18.75 16.293 18.9448L17.586 20.2917C17.976 20.6979 18.61 20.6979 19 20.2917C19.39 19.8854 19.39 19.225 19 18.8188ZM8 18.2083C8 15.2615 9.308 12.6354 11.349 10.9167H0V20.2917C0 23.1677 2.239 25.5 5 25.5H11.349C9.308 23.7812 8 21.1552 8 18.2083Z" fill="white"/>
</g>
<defs>
<clipPath id="clip0_144_5247">
<rect width="24" height="25" fill="white" transform="translate(0 0.5)"/>
</clipPath>
</defs>
</svg>
