<svg width="25" height="24" viewBox="0 0 25 24" fill="none" xmlns="http://www.w3.org/2000/svg">
<path d="M12.6251 15.0571C14.2484 15.0571 15.5643 16.3731 15.5643 17.9964V23.8749H9.68584V17.9964C9.68584 16.3731 11.0018 15.0571 12.6251 15.0571Z" fill="white"/>
<path d="M7.72634 17.9963V23.8748H3.80736C2.18407 23.8748 0.868111 22.5589 0.868111 20.9356V11.9993C0.867882 11.4903 1.06568 11.0012 1.41972 10.6355L9.7456 1.63451C11.2147 0.0450159 13.6941 -0.0525762 15.2836 1.4165C15.3591 1.4863 15.4318 1.559 15.5016 1.63451L23.8128 10.6325C24.1776 10.9998 24.3822 11.4964 24.3821 12.014V20.9356C24.3821 22.5589 23.0661 23.8748 21.4428 23.8748H17.5239V17.9963C17.5055 15.3247 15.3485 13.1431 12.7442 13.0803C10.0528 13.0153 7.74687 15.2341 7.72634 17.9963Z" fill="white"/>
<path d="M12.6251 15.0571C14.2484 15.0571 15.5643 16.3731 15.5643 17.9964V23.8749H9.68584V17.9964C9.68584 16.3731 11.0018 15.0571 12.6251 15.0571Z" fill="white"/>
</svg>
