<?xml version="1.0" encoding="utf-8"?>
<!-- Generator: Adobe Illustrator 27.5.0, SVG Export Plug-In . SVG Version: 6.00 Build 0)  -->
<svg version="1.1" id="Capa_1" xmlns="http://www.w3.org/2000/svg" xmlns:xlink="http://www.w3.org/1999/xlink" x="0px" y="0px"
	 viewBox="0 0 2000 2000" style="enable-background:new 0 0 2000 2000;" xml:space="preserve">
<circle style="fill:#FFFFFF;stroke:#263238;stroke-width:5.9767;stroke-miterlimit:10;" cx="227.971" cy="1015.743" r="176.314"/>
<path style="fill:#FFFFFF;stroke:#263238;stroke-width:5.9767;stroke-miterlimit:10;" d="M380.378,1015.743
	c0,84.172-68.235,152.407-152.407,152.407"/>
<path style="fill:#FFFFFF;stroke:#263238;stroke-width:5.9767;stroke-miterlimit:10;" d="M1800.854,1424.248
	c0,0,97.469-62.705,59.759-217.317c0,0-37.71-252.657-422.353-244.203v115.989c0,0,6.934,20.74,38.318,20.74
	c306.06,1.885,259.591,209.291,259.591,209.291"/>
<path style="fill:#FFFFFF;stroke:#263238;stroke-width:5.9767;stroke-linecap:round;stroke-miterlimit:10;" d="M1593.656,1006.778
	c0,0,129.665,15.231,190.344,109.22"/>
<g>
	<path style="fill:#FF3F45;stroke:#263238;stroke-width:5.9767;stroke-miterlimit:10;" d="M1433.67,1491.393
		c-280.871,25.705-584.455,22.624-903.46,0c-9.809,0-17.76-7.952-17.76-17.76c-31.59-305.298-33.936-607.923,0-907.231
		c0-9.809,7.951-17.76,17.76-17.76c300.855-30.685,602.009-30.624,903.46,0c9.809,0,17.76,7.952,17.76,17.76
		c30.979,302.41,30.979,604.821,0,907.231C1451.43,1483.442,1443.478,1491.393,1433.67,1491.393z"/>
	<path style="fill:#FF3F45;stroke:#263238;stroke-width:5.9767;stroke-miterlimit:10;" d="M1298.4,1374.492H669.25
		c-24.119,0-43.671-19.552-43.671-43.671V709.214c0-24.119,19.552-43.671,43.671-43.671h629.15
		c24.119,0,43.671,19.552,43.671,43.671v621.608C1342.071,1354.94,1322.519,1374.492,1298.4,1374.492z"/>
	<path style="fill:#FFFFFF;stroke:#263238;stroke-width:5.9767;stroke-miterlimit:10;" d="M882.325,890.861l51.131-51.131
		c10.085-10.085,10.085-26.437,0-36.522l0,0c-10.085-10.085-26.437-10.085-36.522,0l-51.131,51.131l-51.131-51.131
		c-10.085-10.085-26.437-10.085-36.522,0l0,0c-10.085,10.085-10.085,26.437,0,36.522l51.131,51.131l-51.131,51.131
		c-10.085,10.085-10.085,26.437,0,36.522h0c10.085,10.086,26.437,10.086,36.522,0l51.131-51.131l51.131,51.131
		c10.086,10.086,26.437,10.086,36.522,0h0c10.085-10.085,10.085-26.437,0-36.522L882.325,890.861z"/>
	<path style="fill:#FFFFFF;stroke:#263238;stroke-width:5.9767;stroke-miterlimit:10;" d="M1171.568,890.861l51.131-51.131
		c10.085-10.085,10.085-26.437,0-36.522l0,0c-10.085-10.085-26.437-10.085-36.522,0l-51.131,51.131l-51.131-51.131
		c-10.085-10.085-26.437-10.085-36.522,0l0,0c-10.085,10.085-10.085,26.437,0,36.522l51.131,51.131l-51.131,51.131
		c-10.085,10.085-10.085,26.437,0,36.522h0c10.085,10.086,26.437,10.086,36.522,0l51.131-51.131l51.131,51.131
		c10.086,10.086,26.437,10.086,36.522,0h0c10.085-10.085,10.085-26.437,0-36.522L1171.568,890.861z"/>
	<path style="fill:#FF3F45;stroke:#263238;stroke-width:5.9767;stroke-linecap:round;stroke-miterlimit:10;" d="M595.696,576.935
		c0,0,238.914-30.366,460.054-18.412"/>
	<path style="fill:#FF3F45;stroke:#263238;stroke-width:5.9767;stroke-linecap:round;stroke-miterlimit:10;" d="M882.723,1461.113
		c0.263-5.731-175.266,6.678-332.059-17.89"/>
	<path style="fill:#FFFFFF;stroke:#263238;stroke-width:5.9767;stroke-miterlimit:10;" d="M1085.633,1186.081H882.424
		c-19.805,0-35.86-16.055-35.86-35.86v0c0-19.805,16.055-35.86,35.86-35.86h203.209c19.805,0,35.86,16.055,35.86,35.86v0
		C1121.493,1170.025,1105.438,1186.081,1085.633,1186.081z"/>
</g>
<g>
	<path style="fill:#FF3F45;stroke:#263238;stroke-width:5.9767;stroke-miterlimit:10;" d="M1592.517,1276.835l72.762,270.283
		c11.037,41-13.252,83.184-54.252,94.222l-149.707,40.302l-112.733-418.757l149.707-40.302
		C1539.294,1211.546,1581.479,1235.835,1592.517,1276.835z"/>
	<path style="fill:#FF3F45;stroke:#263238;stroke-width:5.9767;stroke-miterlimit:10;" d="M1807.815,1365.763L1807.815,1365.763
		c11.369,42.233-13.65,85.685-55.883,97.055l-101.958,27.448l-41.172-152.937l101.958-27.448
		C1752.993,1298.511,1796.445,1323.531,1807.815,1365.763z"/>
	<path style="fill:#FFFFFF;stroke:#263238;stroke-width:5.9767;stroke-miterlimit:10;" d="M778.802,1737.608l230.329-62.006
		c17.845-4.804,36.205,5.768,41.009,23.612l1.933,7.18c4.804,17.845-5.768,36.205-23.612,41.009l-230.329,62.007
		c-17.845,4.804-36.205-5.768-41.009-23.612l-1.933-7.18C750.386,1760.773,760.958,1742.412,778.802,1737.608z"/>
	<path style="fill:#FFFFFF;stroke:#263238;stroke-width:5.9767;stroke-miterlimit:10;" d="M709.202,1479.072l230.329-62.006
		c17.845-4.804,36.205,5.768,41.009,23.612l1.933,7.18c4.804,17.845-5.768,36.205-23.612,41.009l-230.329,62.006
		c-17.845,4.804-36.205-5.768-41.009-23.612l-1.933-7.18C680.786,1502.236,691.357,1483.876,709.202,1479.072z"/>
	<path style="fill:#FF3F45;stroke:#263238;stroke-width:5.9767;stroke-miterlimit:10;" d="M1289.416,1253.431l125.476,466.094
		l-370.303,99.689c-25.755,6.933-52.254-8.324-59.187-34.079l-100.369-372.829c-6.933-25.755,8.324-52.254,34.079-59.187
		L1289.416,1253.431z"/>
	<path style="fill:#FF3F45;stroke:#263238;stroke-width:5.9767;stroke-miterlimit:10;" d="M1352.369,1269.678l111.752,415.115
		c7.58,28.155-9.1,57.123-37.255,64.703h0c-28.155,7.58-57.123-9.1-64.703-37.255l-111.753-415.116
		c-7.579-28.155,9.1-57.123,37.255-64.703h0C1315.821,1224.844,1344.789,1241.523,1352.369,1269.678z"/>
	<path style="opacity:0.2;" d="M1287.666,1232.423L1287.666,1232.423c28.155-7.579,57.124,9.1,64.703,37.255l111.752,415.115
		c7.58,28.155-9.1,57.123-37.255,64.703h0"/>
	<path style="fill:#FFFFFF;stroke:#263238;stroke-width:5.9767;stroke-miterlimit:10;" d="M1449.983,1365.948l42.035,156.143
		c1.289,4.787-1.547,9.712-6.334,11l0,0c-4.787,1.289-9.712-1.547-11-6.334l-42.035-156.143c-1.289-4.787,1.547-9.712,6.334-11l0,0
		C1443.769,1358.325,1448.694,1361.161,1449.983,1365.948z"/>
	<path style="fill:#FFFFFF;stroke:#263238;stroke-width:5.9767;stroke-miterlimit:10;" d="M1500.962,1352.224l42.035,156.143
		c1.289,4.787-1.547,9.712-6.334,11l0,0c-4.787,1.289-9.712-1.547-11-6.334l-42.035-156.143c-1.289-4.787,1.547-9.712,6.334-11v0
		C1494.748,1344.601,1499.673,1347.437,1500.962,1352.224z"/>
	
		<line style="fill:none;stroke:#263238;stroke-width:5.9767;stroke-linecap:round;stroke-miterlimit:10;" x1="953.359" y1="1412.243" x2="1121.742" y2="1366.912"/>
	
		<line style="fill:none;stroke:#263238;stroke-width:5.9767;stroke-linecap:round;stroke-miterlimit:10;" x1="1159.096" y1="1356.856" x2="1209.135" y2="1343.385"/>
	
		<line style="fill:#FF3F45;stroke:#263238;stroke-width:5.9767;stroke-linecap:round;stroke-miterlimit:10;" x1="1605.609" y1="1407.22" x2="1639.638" y2="1536.004"/>
	
		<line style="fill:#FF3F45;stroke:#263238;stroke-width:5.9767;stroke-linecap:round;stroke-miterlimit:10;" x1="1575.726" y1="1305.615" x2="1591.824" y2="1368.655"/>
</g>
<path style="fill:#FFFFFF;stroke:#263238;stroke-width:5.9767;stroke-miterlimit:10;" d="M565.949,480.825H84.088
	c0,0-39.351,2.622,0-54.136c18.855-29.73,39.268-61.981,105.14-51.39c16.042,5.223,29.45,7.251,44.669-14.02
	c15.219-21.271,45.614-41.798,87.271-33.53c41.657,8.269,66.496,19.307,94.972,65.655c9.074,18.885,14.025,40.296,48.181,20.381
	c18.864-9.145,51.804-11.542,91.561,23.438c7.785,6.85,14.041,15.436,17.123,25.337
	C575.878,471.792,575.702,480.313,565.949,480.825z"/>
<path style="fill:#FFFFFF;stroke:#263238;stroke-width:5.9767;stroke-miterlimit:10;" d="M1590.993,851.383h343.861
	c0,0,28.081,1.871,0-38.632c-13.455-21.216-28.022-44.23-75.029-36.672c-11.448,3.727-21.016,5.174-31.876-10.005
	c-10.86-15.179-32.551-29.828-62.277-23.927c-29.727,5.901-47.453,13.777-67.773,46.852c-6.475,13.477-10.009,28.755-34.383,14.544
	c-13.587-6.587-37.406-8.268-66.132,17.43c-5.092,4.555-9.114,10.32-11.245,16.811
	C1583.906,844.585,1583.834,851.007,1590.993,851.383z"/>
<path style="fill:#FFFFFF;stroke:#263238;stroke-width:5.9767;stroke-miterlimit:10;" d="M898.613,316.516
	c0,0,65.759,12.743,80.062,80.062c3.333-8.567,15.253-67.39,80.062-80.062c-13.587-4.285-69.093-16.884-80.062-80.063
	C977.797,244.878,963.494,299.632,898.613,316.516z"/>
<path style="fill:#FFFFFF;stroke:#263238;stroke-width:5.9767;stroke-miterlimit:10;" d="M1844.208,1008.424
	c0,0,43.755-10.706,71.421,26.396c-0.373-6.171-9.631-45.457,26.397-71.422c-9.505,1.203-46.956,9.114-71.422-26.397
	C1872.436,942.395,1879.095,979.866,1844.208,1008.424z"/>
<path style="fill:#FFFFFF;stroke:#263238;stroke-width:5.9767;stroke-miterlimit:10;" d="M343.292,777.476
	c0,0,26.031-21.062,56.391-4.878c-2.206-4.032-20.878-27.516-4.877-56.391c-6.01,3.82-28.688,21.006-56.391,4.878
	C341.354,724.131,357.704,747.218,343.292,777.476z"/>
<path style="fill:#FFFFFF;stroke:#263238;stroke-width:5.9767;stroke-miterlimit:10;" d="M1257.733,442.778
	c0,0,26.031-21.062,56.391-4.878c-2.206-4.032-20.878-27.516-4.877-56.391c-6.01,3.82-28.688,21.006-56.391,4.878
	C1255.795,389.433,1272.145,412.521,1257.733,442.778z"/>
<path style="fill:#FFFFFF;stroke:#263238;stroke-width:5.9767;stroke-miterlimit:10;" d="M343.292,1440.894
	c0,0,26.031-21.062,56.391-4.878c-2.206-4.032-20.878-27.516-4.877-56.391c-6.01,3.82-28.688,21.006-56.391,4.878
	C341.354,1387.549,357.704,1410.636,343.292,1440.894z"/>
<path style="fill:#FFFFFF;stroke:#263238;stroke-width:5.9767;stroke-miterlimit:10;" d="M1565.057,665.777
	c0,0,17.454-14.122,37.81-3.27c-1.479-2.703-13.999-18.45-3.27-37.81c-4.03,2.562-19.235,14.084-37.81,3.27
	C1563.758,630.009,1574.72,645.49,1565.057,665.777z"/>
<g>
	<path style="fill:#FFFFFF;stroke:#263238;stroke-width:5.9767;stroke-miterlimit:10;" d="M1794.488,551.748l-44.429-276.391
		c-3.554-22.109-28.983-32.917-47.367-20.132l-234.419,163.018c-19.808,13.775-16.444,44.029,5.906,53.116l278.849,113.373
		C1774.979,593.657,1798.249,575.145,1794.488,551.748z"/>
	<circle style="fill:#FF3F45;stroke:#263238;stroke-width:5.9767;stroke-miterlimit:10;" cx="1633.441" cy="479.928" r="26.586"/>
	<path style="fill:#FF3F45;stroke:#263238;stroke-width:5.9767;stroke-miterlimit:10;" d="M1648.179,445.766L1648.179,445.766
		c-9.007-3.886-13.469-14.08-10.212-23.333l35.855-101.87c1.728-4.909,7.252-7.326,12.03-5.265l31.383,13.539
		c4.778,2.061,6.81,7.739,4.425,12.364l-49.5,95.984C1667.663,445.901,1657.185,449.651,1648.179,445.766z"/>
	
		<line style="fill:#FF3F45;stroke:#263238;stroke-width:5.9767;stroke-miterlimit:10;" x1="1495.448" y1="420.398" x2="1615.159" y2="338.849"/>
</g>
<path style="fill:#FF3F45;stroke:#263238;stroke-width:5.9767;stroke-miterlimit:10;" d="M189.171,1089.802
	c19.541,37.848,53.69,21.61,54.109,21.395l52.458-27.288c12.106-6.25,31.201-25.424,16.831-53.256l-19.947-38.889l0.138,0.01
	l-23.363-45.251c-2.873-5.565-9.874-7.681-15.609-4.721c-5.733,2.96-8.065,9.894-5.191,15.46l22.262,43.052l-2.755,1.178
	c-0.229,0.118-6.199,3.279-8.591,10.596c-2.118,6.468-0.865,14.26,3.729,23.158l0.63,1.219l-4.767,2.461l-0.63-1.219
	c-5.292-10.25-6.65-19.442-4.046-27.34c2.139-6.507,6.684-10.528,9.345-12.429l-41.247-80.007
	c-3.419-4.152-9.366-5.313-14.355-2.737c-5.762,2.975-8.114,9.919-5.242,15.482l32.289,62.539l-4.424,2.284l-40.421-78.29
	c-2.872-5.563-9.901-7.667-15.659-4.694c-5.762,2.975-8.113,9.922-5.241,15.485l40.421,78.29l-4.587,2.368l-35.7-69.146
	c-2.873-5.564-9.897-7.666-15.658-4.691c-5.764,2.976-8.118,9.92-5.246,15.484l35.7,69.146l-4.135,2.135l-24.234-46.938
	c-2.87-5.559-9.898-7.669-15.664-4.692c-5.763,2.975-8.111,9.925-5.241,15.485L189.171,1089.802z"/>
<g>
	<path style="fill:#FF3F45;stroke:#263238;stroke-width:5.9767;stroke-miterlimit:10;" d="M737.554,345.19l-122.115,19.525
		c-23.821,3.809-46.22-12.415-50.029-36.236l-12.69-79.37c-3.809-23.821,12.415-46.22,36.236-50.029l122.115-19.525
		c23.821-3.809,46.22,12.415,50.029,36.236l12.69,79.37C777.599,318.982,761.376,341.381,737.554,345.19z"/>
	
		<line style="fill:#FF3F45;stroke:#263238;stroke-width:5.9767;stroke-miterlimit:10;" x1="628.881" y1="212.142" x2="704.951" y2="199.861"/>
	<g>
		<path style="fill:#FFFFFF;" d="M622.097,265.546l-13.874,2.294l-0.706-4.255c-0.327-1.984-0.715-3.222-1.161-3.703
			c-0.444-0.49-1.077-0.662-1.909-0.525c-0.896,0.149-1.518,0.63-1.859,1.436c-0.339,0.817-0.385,1.964-0.137,3.452
			c0.315,1.92,0.814,3.327,1.494,4.202c0.654,0.893,2.259,1.827,4.804,2.813c7.302,2.854,12.026,5.393,14.174,7.646
			c2.145,2.241,3.686,6.178,4.617,11.81c0.68,4.091,0.697,7.182,0.061,9.283c-0.636,2.098-2.218,4.033-4.745,5.802
			c-2.527,1.766-5.615,2.953-9.257,3.557c-3.998,0.662-7.535,0.467-10.614-0.581c-3.079-1.045-5.247-2.67-6.511-4.859
			c-1.264-2.203-2.25-5.451-2.965-9.759l-0.622-3.759l13.877-2.297l1.159,6.986c0.356,2.154,0.779,3.505,1.272,4.059
			c0.49,0.549,1.234,0.744,2.227,0.578c0.992-0.163,1.666-0.683,2.025-1.541c0.356-0.861,0.406-2.057,0.152-3.598
			c-0.56-3.385-1.389-5.521-2.484-6.409c-1.118-0.881-3.735-2.235-7.856-4.059c-4.118-1.841-6.878-3.219-8.268-4.129
			c-1.389-0.916-2.644-2.285-3.759-4.121c-1.121-1.83-1.932-4.272-2.437-7.325c-0.73-4.401-0.697-7.71,0.09-9.934
			c0.785-2.218,2.338-4.106,4.652-5.67c2.317-1.567,5.253-2.638,8.805-3.225c3.878-0.642,7.287-0.566,10.226,0.236
			c2.942,0.803,5.011,2.084,6.213,3.841c1.202,1.754,2.183,4.917,2.939,9.482L622.097,265.546z"/>
		<path style="fill:#FFFFFF;" d="M655.238,242.199l1.903,11.492l-8.872,1.468l7.605,45.958l-14.936,2.475l-7.611-45.958
			l-8.837,1.462l-1.903-11.492L655.238,242.199z"/>
		<path style="fill:#FFFFFF;" d="M698.35,269.62c0.954,5.772,1.494,9.881,1.62,12.333c0.128,2.443-0.362,4.777-1.462,6.998
			c-1.106,2.23-2.787,4.071-5.046,5.545c-2.262,1.465-5.014,2.472-8.253,3.006c-3.076,0.511-5.918,0.461-8.533-0.137
			c-2.615-0.598-4.836-1.783-6.657-3.546c-1.824-1.763-3.073-3.803-3.75-6.126c-0.677-2.317-1.506-6.438-2.484-12.35l-1.628-9.829
			c-0.954-5.767-1.494-9.881-1.62-12.324c-0.123-2.451,0.362-4.786,1.465-7.007c1.103-2.227,2.784-4.077,5.046-5.536
			c2.259-1.471,5.011-2.475,8.25-3.012c3.076-0.508,5.921-0.461,8.539,0.134c2.612,0.607,4.83,1.786,6.654,3.549
			c1.821,1.766,3.076,3.806,3.75,6.123c0.677,2.323,1.503,6.438,2.481,12.35L698.35,269.62z M680.286,253.213
			c-0.444-2.667-0.875-4.36-1.293-5.052c-0.42-0.692-1.089-0.966-2.014-0.811c-0.779,0.128-1.325,0.525-1.643,1.199
			c-0.315,0.671-0.228,2.486,0.263,5.44l4.442,26.831c0.552,3.339,1.03,5.37,1.43,6.105c0.4,0.733,1.1,1.024,2.092,0.861
			c1.021-0.169,1.596-0.727,1.731-1.672c0.134-0.946-0.079-3.111-0.639-6.496L680.286,253.213z"/>
		<path style="fill:#FFFFFF;" d="M698.353,235.061l15.047-2.489c4.068-0.674,7.249-0.878,9.543-0.604
			c2.294,0.28,4.089,0.931,5.39,1.955c1.299,1.021,2.285,2.364,2.962,4.016c0.674,1.652,1.307,4.272,1.903,7.862l0.829,5.008
			c0.607,3.665,0.674,6.403,0.193,8.209c-0.479,1.806-1.655,3.324-3.528,4.558c-1.876,1.234-4.445,2.122-7.71,2.662l-4.01,0.665
			l3.832,23.137l-14.942,2.472L698.353,235.061z M714.918,242.418l2.422,14.621c0.429-0.05,0.8-0.096,1.103-0.149
			c1.377-0.228,2.271-0.73,2.691-1.488c0.42-0.759,0.455-2.203,0.105-4.334l-0.782-4.722c-0.327-1.961-0.846-3.19-1.558-3.677
			C718.186,242.176,716.858,242.097,714.918,242.418z"/>
	</g>
</g>
</svg>
