<svg width="30" height="30" viewBox="0 0 30 30" fill="none" xmlns="http://www.w3.org/2000/svg">
<path d="M29.6013 14.5899C29.6013 12.6097 28.7318 10.7416 27.2571 9.56765C27.4276 7.59237 26.7213 5.65729 25.3208 4.2556C23.9203 2.85635 21.9901 2.14759 20.1122 2.36192C17.6596 -0.750772 12.361 -0.809227 9.96554 2.3193C6.02839 1.85167 2.24225 5.55865 2.76104 9.46535C-0.351661 11.918 -0.411333 17.2166 2.71841 19.6133C2.54792 21.5885 3.25424 23.5236 4.65471 24.9253C6.05518 26.3246 7.98783 27.0333 9.86324 26.819C12.3159 29.9317 17.6145 29.9902 20.01 26.8616C21.9828 27.0309 23.9191 26.327 25.3208 24.9253C26.72 23.5249 27.4264 21.5885 27.2145 19.7168C28.7318 18.4405 29.6013 16.5724 29.6013 14.5923V14.5899ZM10.1165 10.9365C10.1239 9.34357 12.5448 9.34357 12.5521 10.9365C12.5448 12.5293 10.1239 12.5293 10.1165 10.9365ZM13.5654 18.9191C13.1903 19.483 12.4291 19.6267 11.8763 19.2565C11.3161 18.8838 11.1651 18.1276 11.5389 17.5674L16.4101 10.2606C16.7828 9.7016 17.5378 9.54816 18.0992 9.92324C18.6594 10.2959 18.8104 11.0521 18.4366 11.6123L13.5654 18.9191ZM18.6411 19.4611C17.0483 19.4537 17.0483 17.0328 18.6411 17.0255C20.234 17.0328 20.234 19.4537 18.6411 19.4611Z" fill="white"/>
</svg>
