<svg width="18" height="18" viewBox="0 0 18 18" fill="none" xmlns="http://www.w3.org/2000/svg">
<g clip-path="url(#clip0_84_2378)">
<path d="M6.00001 0.749971L6.00001 15.9892L6.01126 15.9787L7.72501 14.2957C7.79419 14.2221 7.87754 14.1632 7.97006 14.1226C8.06257 14.0819 8.16234 14.0604 8.26337 14.0593C8.36441 14.0582 8.46463 14.0775 8.55801 14.1161C8.6514 14.1547 8.73602 14.2117 8.80681 14.2838C8.87759 14.3559 8.93308 14.4416 8.96994 14.5357C9.0068 14.6297 9.02427 14.7303 9.0213 14.8313C9.01833 14.9323 8.99498 15.0317 8.95266 15.1234C8.91034 15.2152 8.84991 15.2974 8.77501 15.3652L7.06726 17.0445C6.94501 17.1667 6.75751 17.3377 6.56026 17.5125C6.20542 17.8263 5.74808 17.9995 5.27438 17.9995C4.80069 17.9995 4.34334 17.8263 3.98851 17.5125C3.79201 17.3377 3.60451 17.1667 3.48601 17.049L1.77301 15.3652C1.6404 15.2241 1.56754 15.0371 1.56967 14.8434C1.5718 14.6498 1.64876 14.4645 1.78444 14.3263C1.92011 14.1881 2.10399 14.1077 2.29758 14.102C2.49116 14.0963 2.67944 14.1657 2.82301 14.2957L4.50001 15.942L4.50001 0.749971C4.50001 0.551058 4.57903 0.360292 4.71968 0.219641C4.86033 0.0789871 5.0511 -2.86102e-05 5.25001 -2.86102e-05C5.44892 -2.86102e-05 5.63969 0.0789871 5.78034 0.219641C5.92099 0.360292 6.00001 0.551058 6.00001 0.749971Z" fill="white"/>
<path d="M12 17.25V2.05875L10.3253 3.70425C10.2561 3.77789 10.1727 3.83679 10.0802 3.87742C9.9877 3.91805 9.88793 3.93956 9.78689 3.94067C9.68586 3.94178 9.58564 3.92247 9.49225 3.88389C9.39887 3.8453 9.31424 3.78825 9.24346 3.71615C9.17267 3.64404 9.11718 3.55838 9.08032 3.4643C9.04347 3.37023 9.026 3.26967 9.02897 3.16867C9.03194 3.06767 9.05528 2.96832 9.09761 2.87657C9.13993 2.78482 9.20036 2.70257 9.27526 2.63475L10.9845 0.955498C11.1068 0.833248 11.2943 0.662247 11.4908 0.487497C11.8456 0.173683 12.3029 0.000459671 12.7766 0.000459671C13.2503 0.000459671 13.7077 0.173683 14.0625 0.487497C14.2598 0.662247 14.4473 0.833246 14.565 0.950996L16.275 2.63475C16.4076 2.7759 16.4805 2.96287 16.4783 3.15653C16.4762 3.35018 16.3993 3.53551 16.2636 3.67371C16.1279 3.8119 15.944 3.89226 15.7504 3.89795C15.5569 3.90365 15.3686 3.83423 15.225 3.70425L13.5075 2.016L13.5 2.01V17.25C13.5 17.4489 13.421 17.6397 13.2803 17.7803C13.1397 17.921 12.9489 18 12.75 18C12.5511 18 12.3603 17.921 12.2197 17.7803C12.079 17.6397 12 17.4489 12 17.25Z" fill="white"/>
</g>
<defs>
<clipPath id="clip0_84_2378">
<rect width="18" height="18" fill="white" transform="matrix(0 -1 -1 0 18 18)"/>
</clipPath>
</defs>
</svg>
