<?xml version="1.0" encoding="utf-8"?>
<!-- Generator: Adobe Illustrator 24.0.1, SVG Export Plug-In . SVG Version: 6.00 Build 0)  -->
<svg version="1.1" id="Layer_1" xmlns="http://www.w3.org/2000/svg" xmlns:xlink="http://www.w3.org/1999/xlink" x="0px" y="0px"
	 viewBox="0 0 512 512" style="enable-background:new 0 0 512 512;" xml:space="preserve">
<g>
	<g>
		<path d="M315,8.6L315,8.6C162.3,8.7,73.3,179.2,156.5,304.3L21.6,439.2C7,453.8,7,477.7,21.6,492.4c14.6,14.6,38.5,14.6,53.2,0
			l134.9-134.9c73.7,49,174.6,41.3,239.9-23.9C568.7,214.4,484.2,8.6,315,8.6z M442.3,326.2c-70.2,70.2-184.4,70.2-254.6,0
			C74,212.5,156.1,19,315,18.9h0.1C474.9,18.9,555.1,213.5,442.3,326.2z"/>
		<path d="M315,62.9c-75.1,0-136.2,61-136.2,136.1S240,335,315,335c75,0,136.1-61,136.1-136.1S390,62.9,315,62.9z M315,324.7
			c-69.4,0-125.9-56.4-125.9-125.8c0-69.4,56.5-125.7,125.9-125.7c69.3,0,125.7,56.4,125.7,125.7C440.8,268.3,384.4,324.7,315,324.7
			z"/>
		<path d="M88,216.7c-18.1,0-32.9-14.7-32.9-32.9c0-2.9-2.4-5.2-5.2-5.2s-5.2,2.3-5.2,5.2c0,18.1-14.7,32.9-32.9,32.9
			c-2.9,0-5.2,2.3-5.2,5.2c0,2.8,2.3,5.2,5.2,5.2c18.1,0,32.9,14.8,32.9,32.9c0,2.9,2.4,5.2,5.2,5.2c2.8,0,5.2-2.3,5.2-5.2
			c0-18.1,14.7-32.9,32.9-32.9c2.8,0,5.2-2.3,5.2-5.2S90.8,216.7,88,216.7z M49.9,239.6c-4-7.5-10.2-13.7-17.6-17.7
			c7.5-4,13.6-10.2,17.6-17.6c4,7.4,10.2,13.6,17.7,17.6C60.1,225.9,53.9,232.1,49.9,239.6z"/>
		<path d="M419.9,455c-18.1,0-32.9-14.7-32.9-32.9c0-2.9-2.3-5.2-5.2-5.2c-2.8,0-5.2,2.3-5.2,5.2c0,18.1-14.7,32.9-32.9,32.9
			c-2.8,0-5.2,2.3-5.2,5.2c0,2.8,2.3,5.2,5.2,5.2c18.1,0,32.9,14.8,32.9,32.9c0,2.8,2.4,5.2,5.2,5.2s5.2-2.3,5.2-5.2
			c0-18.1,14.8-32.9,32.9-32.9c2.8,0,5.2-2.3,5.2-5.2S422.7,455,419.9,455z M381.8,477.8c-4-7.5-10.2-13.7-17.6-17.7
			c7.4-4,13.6-10.2,17.6-17.6c4,7.5,10.2,13.6,17.6,17.6C391.9,464.2,385.8,470.3,381.8,477.8z"/>
	</g>
	<g>
		<path d="M370,168l-5.5-5.5c-0.6-0.6-1.5-1-2.3-1H358c-0.5-7.4-6.7-13.4-14.2-13.4H286c-7.6,0-13.8,5.9-14.2,13.4h-4.2
			c-0.9,0-1.7,0.3-2.3,1l-5.5,5.5c-0.6,0.6-1,1.5-1,2.3v16.4c0,1.8,1.5,3.3,3.3,3.3c1.8,0,3.3-1.5,3.3-3.3v-15.1l3.6-3.6h2.8v39.6
			c13.6,2.7,73.1,2.6,86.4,0v-39.6h2.8l3.6,3.6v15.1c0,1.8,1.5,3.3,3.3,3.3c1.8,0,3.3-1.5,3.3-3.3v-16.4
			C371,169.5,370.7,168.6,370,168z"/>
		<path d="M275.4,253.5v1.3c0,3,2.5,5.5,5.5,5.5h10.3c3,0,5.5-2.5,5.5-5.5v-1.2C276.1,253.6,277,253.7,275.4,253.5z"/>
		<path d="M333.1,253.6v1.2c0,3,2.5,5.5,5.5,5.5h10.3c3,0,5.5-2.5,5.5-5.5v-1.3C352.8,253.7,353.6,253.6,333.1,253.6z"/>
		<path d="M271.7,214.5v12.2l20.7,3.6c1.2,0.2,2.2,1.1,2.6,2.2l4.7,14.6h30.4l4.7-14.6c0.4-1.2,1.4-2,2.6-2.2l20.7-3.6v-12.2
			C342.2,217,287.6,217,271.7,214.5z M324.8,230.6H305c-1.8,0-3.3-1.5-3.3-3.3s1.5-3.3,3.3-3.3h19.7c1.8,0,3.3,1.5,3.3,3.3
			S326.6,230.6,324.8,230.6z"/>
		<path d="M337,247.1h15.6c3,0,5.5-2.5,5.5-5.5v-8.3l-17.6,3.1L337,247.1z"/>
		<path d="M292.8,247.1l-3.4-10.7l-17.6-3.1v8.3c0,3,2.5,5.5,5.5,5.5H292.8z"/>
	</g>
</g>
</svg>
