<svg width="26" height="26" viewBox="0 0 26 26" fill="none" xmlns="http://www.w3.org/2000/svg">
<g clip-path="url(#clip0_84_2373)">
<path d="M13 0C10.1278 0.00315423 7.37413 1.14553 5.34317 3.17649C3.3122 5.20745 2.16983 7.96112 2.16667 10.8333C2.16667 16.5555 11.2667 24.4108 12.3002 25.2883L13 25.8798L13.6998 25.2883C14.7333 24.4108 23.8333 16.5555 23.8333 10.8333C23.8302 7.96112 22.6878 5.20745 20.6568 3.17649C18.6259 1.14553 15.8722 0.00315423 13 0ZM13 16.25C11.9287 16.25 10.8814 15.9323 9.99067 15.3371C9.0999 14.7419 8.40563 13.896 7.99566 12.9062C7.58568 11.9164 7.47842 10.8273 7.68742 9.77659C7.89642 8.72586 8.41231 7.76071 9.16984 7.00317C9.92738 6.24564 10.8925 5.72975 11.9433 5.52075C12.994 5.31174 14.0831 5.41901 15.0729 5.82899C16.0626 6.23896 16.9086 6.93323 17.5038 7.824C18.099 8.71476 18.4167 9.76202 18.4167 10.8333C18.415 12.2694 17.8437 13.6461 16.8283 14.6616C15.8128 15.677 14.4361 16.2483 13 16.25Z" fill="#FF0000"/>
<path d="M13 14.0833C14.7949 14.0833 16.25 12.6282 16.25 10.8333C16.25 9.03839 14.7949 7.58331 13 7.58331C11.2051 7.58331 9.75 9.03839 9.75 10.8333C9.75 12.6282 11.2051 14.0833 13 14.0833Z" fill="#FF0000"/>
</g>
<defs>
<clipPath id="clip0_84_2373">
<rect width="26" height="26" fill="white"/>
</clipPath>
</defs>
</svg>
