<svg width="18" height="18" viewBox="0 0 18 18" fill="none" xmlns="http://www.w3.org/2000/svg">
<path d="M2.99999 18H5.24999C6.90683 18 8.24998 16.6569 8.24998 15V12.75C8.24998 11.0932 6.90683 9.75002 5.24999 9.75002H2.99999C1.34314 9.74999 0 11.0931 0 12.75V15C0 16.6569 1.34314 18 2.99999 18Z" fill="black"/>
<path d="M12.75 18H15C16.6569 18 18 16.6569 18 15V12.75C18 11.0932 16.6569 9.75002 15 9.75002H12.75C11.0932 9.75002 9.75003 11.0932 9.75003 12.75V15C9.75 16.6569 11.0931 18 12.75 18Z" fill="black"/>
<path d="M2.99999 8.25H5.24999C6.90683 8.25 8.24998 6.90686 8.24998 5.25001V3.00001C8.24998 1.34317 6.90683 2.38419e-05 5.24999 2.38419e-05H2.99999C1.34314 -1.14441e-05 0 1.34313 0 2.99998V5.24998C0 6.90686 1.34314 8.25 2.99999 8.25Z" fill="black"/>
<path d="M12.75 8.25H15C16.6569 8.25 18 6.90686 18 5.25001V3.00001C18 1.34313 16.6569 -1.14441e-05 15 -1.14441e-05H12.75C11.0932 -1.14441e-05 9.75003 1.34313 9.75003 2.99998V5.24998C9.75 6.90686 11.0931 8.25 12.75 8.25Z" fill="black"/>
</svg>
