<svg width="24" height="24" viewBox="0 0 24 24" fill="none" xmlns="http://www.w3.org/2000/svg">
<g opacity="0.8" clip-path="url(#clip0_159_7797)">
<path d="M20 10C20 4.486 15.514 0 10 0C4.486 0 0 4.486 0 10C0 15.514 4.486 20 10 20C12.397 20 14.599 19.15 16.324 17.738L22.564 23.978L23.978 22.564L17.738 16.324C19.15 14.599 20 12.397 20 10ZM13.535 12.535L10 15.993L6.473 12.543C5.521 11.592 5 10.336 5 9C5 7.664 5.521 6.408 6.465 5.465C7.408 4.521 8.664 4 10 4C11.336 4 12.591 4.521 13.535 5.465C14.479 6.409 15 7.664 15 9C15 10.336 14.479 11.592 13.535 12.535ZM10 6C9.198 6 8.445 6.312 7.88 6.879C7.313 7.445 7 8.198 7 9C7 9.802 7.312 10.555 7.879 11.121L10 13.196L12.129 11.113C12.688 10.554 13 9.801 13 9C13 8.199 12.687 7.445 12.121 6.879C11.555 6.313 10.801 6 10 6ZM10 9.993C9.448 9.993 9 9.545 9 8.993C9 8.441 9.448 7.993 10 7.993C10.552 7.993 11 8.441 11 8.993C11 9.545 10.552 9.993 10 9.993Z" fill="black"/>
</g>
<defs>
<clipPath id="clip0_159_7797">
<rect width="24" height="24" fill="white"/>
</clipPath>
</defs>
</svg>
