<svg width="30" height="31" viewBox="0 0 30 31" fill="none" xmlns="http://www.w3.org/2000/svg">
<path d="M26.6992 3.66008H23.8845V2.40312C23.8845 1.76311 23.2106 1.26172 22.3511 1.26172C21.4903 1.26172 20.8159 1.76311 20.8159 2.40312V3.66008H16.5352V2.40312C16.5352 1.76311 15.8608 1.26172 15 1.26172C14.1393 1.26172 13.4649 1.76311 13.4649 2.40312V3.66008H9.18564V2.40312C9.18564 1.76311 8.5114 1.26172 7.65048 1.26172C6.78956 1.26172 6.11532 1.76311 6.11532 2.40312V3.66008H3.30241C2.8087 3.66062 2.33536 3.85699 1.98624 4.20609C1.63712 4.5552 1.44074 5.02853 1.44019 5.52225V27.8761C1.44076 28.3698 1.63714 28.8431 1.98625 29.1922C2.33536 29.5413 2.80869 29.7377 3.30241 29.7383H26.6992C27.1928 29.7376 27.6658 29.5411 28.0147 29.192C28.3635 28.8428 28.5596 28.3696 28.5598 27.8761V5.52225C28.5595 5.02873 28.3635 4.55549 28.0146 4.20638C27.6658 3.85726 27.1928 3.66079 26.6992 3.66008ZM21.7535 2.41016C21.7822 2.34863 21.9979 2.19922 22.3512 2.19922C22.7034 2.19922 22.9185 2.34887 22.9471 2.41016V3.66008H21.7535V2.41016ZM14.4024 2.41068C14.4317 2.34898 14.6475 2.19922 15 2.19922C15.3525 2.19922 15.5684 2.34898 15.5977 2.41068V3.66008H14.4024V2.41068ZM7.05294 2.41068C7.08224 2.34898 7.29804 2.19922 7.6506 2.19922C8.00315 2.19922 8.21895 2.34898 8.24825 2.41068V3.66008H7.05294V2.41068Z" fill="#EAE8E8"/>
<path d="M13.9523 12.5212V14.6256C13.9523 14.7499 13.903 14.8691 13.8151 14.957C13.7271 15.0449 13.6079 15.0943 13.4836 15.0943H11.0988C10.9745 15.0943 10.8553 15.0449 10.7674 14.957C10.6795 14.8691 10.6301 14.7499 10.6301 14.6256V12.5212C10.6301 12.3969 10.6795 12.2777 10.7674 12.1898C10.8553 12.1019 10.9745 12.0525 11.0988 12.0525H13.4836C13.6079 12.0525 13.7271 12.1019 13.8151 12.1898C13.903 12.2777 13.9523 12.3969 13.9523 12.5212ZM18.9014 12.0525H16.5166C16.3923 12.0525 16.2731 12.1019 16.1852 12.1898C16.0973 12.2777 16.0479 12.3969 16.0479 12.5212V14.6256C16.0479 14.7499 16.0973 14.8691 16.1852 14.957C16.2731 15.0449 16.3923 15.0943 16.5166 15.0943H18.9014C19.0257 15.0943 19.145 15.0449 19.2329 14.957C19.3208 14.8691 19.3702 14.7499 19.3702 14.6256V12.5212C19.3702 12.3969 19.3208 12.2777 19.2329 12.1898C19.145 12.1019 19.0257 12.0525 18.9014 12.0525ZM8.06743 17.2012H5.68079C5.55647 17.2012 5.43724 17.2506 5.34933 17.3385C5.26142 17.4264 5.21204 17.5456 5.21204 17.6699V19.7743C5.21204 19.8986 5.26142 20.0178 5.34933 20.1057C5.43724 20.1936 5.55647 20.243 5.68079 20.243H8.06748C8.19181 20.243 8.31103 20.1936 8.39894 20.1057C8.48685 20.0178 8.53623 19.8986 8.53623 19.7743V17.6699C8.53623 17.5456 8.48685 17.4264 8.39894 17.3385C8.31103 17.2506 8.19175 17.2012 8.06743 17.2012ZM13.4835 17.2012H11.0988C10.9745 17.2012 10.8552 17.2506 10.7673 17.3385C10.6794 17.4264 10.63 17.5456 10.63 17.6699V19.7743C10.63 19.8986 10.6794 20.0178 10.7673 20.1057C10.8552 20.1936 10.9745 20.243 11.0988 20.243H13.4835C13.6079 20.243 13.7271 20.1936 13.815 20.1057C13.9029 20.0178 13.9523 19.8986 13.9523 19.7743V17.6699C13.9523 17.5456 13.9029 17.4264 13.815 17.3385C13.7271 17.2506 13.6079 17.2012 13.4836 17.2012H13.4835ZM18.9014 17.2012H16.5166C16.3923 17.2012 16.273 17.2506 16.1851 17.3385C16.0972 17.4264 16.0478 17.5456 16.0478 17.6699V19.7743C16.0478 19.8986 16.0972 20.0178 16.1851 20.1057C16.273 20.1936 16.3923 20.243 16.5166 20.243H18.9014C19.0257 20.243 19.1449 20.1936 19.2328 20.1057C19.3207 20.0178 19.3701 19.8986 19.3701 19.7743V17.6699C19.3701 17.5456 19.3207 17.4264 19.2328 17.3385C19.1449 17.2506 19.0257 17.2012 18.9014 17.2012H18.9014ZM8.06737 22.3516H5.68079C5.55647 22.3516 5.43724 22.401 5.34933 22.4889C5.26142 22.5768 5.21204 22.696 5.21204 22.8203V24.923C5.21204 25.0473 5.26142 25.1665 5.34933 25.2544C5.43724 25.3423 5.55647 25.3917 5.68079 25.3917H8.06748C8.19181 25.3917 8.31103 25.3423 8.39894 25.2544C8.48685 25.1665 8.53623 25.0473 8.53623 24.923V22.8204C8.53623 22.6961 8.48685 22.5768 8.39894 22.4889C8.31103 22.401 8.19181 22.3516 8.06748 22.3516L8.06737 22.3516ZM13.4835 22.3516H11.0987C10.9744 22.3516 10.8552 22.401 10.7673 22.4889C10.6794 22.5768 10.63 22.696 10.63 22.8203V24.923C10.63 25.0473 10.6794 25.1665 10.7673 25.2544C10.8552 25.3423 10.9744 25.3917 11.0987 25.3917H13.4835C13.6078 25.3917 13.727 25.3423 13.8149 25.2544C13.9028 25.1665 13.9522 25.0473 13.9522 24.923V22.8204C13.9522 22.6961 13.9029 22.5769 13.815 22.489C13.7271 22.4011 13.6079 22.3517 13.4836 22.3516L13.4835 22.3516ZM8.06748 12.0525H5.68079C5.55647 12.0525 5.43724 12.1019 5.34933 12.1898C5.26142 12.2777 5.21204 12.3969 5.21204 12.5212V14.6256C5.21204 14.7499 5.26142 14.8691 5.34933 14.957C5.43724 15.0449 5.55647 15.0943 5.68079 15.0943H8.06748C8.19181 15.0943 8.31103 15.0449 8.39894 14.957C8.48685 14.8691 8.53623 14.7499 8.53623 14.6256V12.5212C8.53623 12.3969 8.48685 12.2777 8.39894 12.1898C8.31103 12.1019 8.19181 12.0525 8.06748 12.0525ZM24.3192 17.2012H21.9345C21.8101 17.2012 21.6909 17.2506 21.603 17.3385C21.5151 17.4264 21.4657 17.5456 21.4657 17.6699V19.7743C21.4657 19.8986 21.5151 20.0178 21.603 20.1057C21.6909 20.1936 21.8101 20.243 21.9345 20.243H24.3192C24.4435 20.243 24.5628 20.1936 24.6507 20.1057C24.7386 20.0178 24.788 19.8986 24.788 19.7743V17.6699C24.788 17.5456 24.7386 17.4264 24.6507 17.3385C24.5628 17.2506 24.4435 17.2012 24.3192 17.2012ZM18.9014 22.3516H16.5166C16.3923 22.3516 16.2731 22.401 16.1852 22.4889C16.0973 22.5768 16.0479 22.696 16.0479 22.8203V24.923C16.0479 25.0473 16.0973 25.1665 16.1852 25.2544C16.2731 25.3423 16.3923 25.3917 16.5166 25.3917H18.9014C19.0257 25.3917 19.145 25.3423 19.2329 25.2544C19.3208 25.1665 19.3702 25.0473 19.3702 24.923V22.8204C19.3702 22.6961 19.3208 22.5768 19.2329 22.4889C19.145 22.401 19.0257 22.3516 18.9014 22.3516Z" fill="#484868"/>
<path d="M8.06747 12.0525H7.48154C7.60586 12.0525 7.72509 12.1019 7.81299 12.1898C7.9009 12.2777 7.95029 12.3969 7.95029 12.5212V14.6256C7.95029 14.7499 7.9009 14.8691 7.81299 14.957C7.72509 15.0449 7.60586 15.0943 7.48154 15.0943H8.06747C8.19179 15.0943 8.31102 15.0449 8.39893 14.957C8.48684 14.8691 8.53622 14.7499 8.53622 14.6256V12.5212C8.53622 12.3969 8.48684 12.2777 8.39893 12.1898C8.31102 12.1019 8.19179 12.0525 8.06747 12.0525Z" fill="#3D3D54"/>
<path d="M13.4836 22.3516H12.8976C13.022 22.3516 13.1412 22.4009 13.2291 22.4889C13.317 22.5768 13.3664 22.696 13.3664 22.8203V24.9229C13.3664 25.0473 13.317 25.1665 13.2291 25.2544C13.1412 25.3423 13.022 25.3917 12.8976 25.3917H13.4836C13.6079 25.3917 13.7271 25.3423 13.815 25.2544C13.9029 25.1665 13.9523 25.0473 13.9523 24.9229V22.8203C13.9523 22.696 13.9029 22.5768 13.815 22.4889C13.7271 22.4009 13.6079 22.3516 13.4836 22.3516Z" fill="#3D3D54"/>
<path d="M13.4836 17.2012H12.8976C13.022 17.2012 13.1412 17.2506 13.2291 17.3385C13.317 17.4264 13.3664 17.5456 13.3664 17.6699V19.7743C13.3664 19.8986 13.317 20.0178 13.2291 20.1057C13.1412 20.1936 13.022 20.243 12.8976 20.243H13.4836C13.6079 20.243 13.7271 20.1936 13.815 20.1057C13.9029 20.0178 13.9523 19.8986 13.9523 19.7743V17.6699C13.9523 17.5456 13.9029 17.4264 13.815 17.3385C13.7271 17.2506 13.6079 17.2012 13.4836 17.2012Z" fill="#3D3D54"/>
<path d="M8.06747 22.3516H7.48154C7.60586 22.3516 7.72509 22.4009 7.81299 22.4889C7.9009 22.5768 7.95029 22.696 7.95029 22.8203V24.9229C7.95029 25.0473 7.9009 25.1665 7.81299 25.2544C7.72509 25.3423 7.60586 25.3917 7.48154 25.3917H8.06747C8.19179 25.3917 8.31102 25.3423 8.39893 25.2544C8.48684 25.1665 8.53622 25.0473 8.53622 24.9229V22.8203C8.53622 22.696 8.48684 22.5768 8.39893 22.4889C8.31102 22.4009 8.19179 22.3516 8.06747 22.3516Z" fill="#3D3D54"/>
<path d="M8.06747 17.2012H7.48154C7.60586 17.2012 7.72509 17.2506 7.81299 17.3385C7.9009 17.4264 7.95029 17.5456 7.95029 17.6699V19.7743C7.95029 19.8986 7.9009 20.0178 7.81299 20.1057C7.72509 20.1936 7.60586 20.243 7.48154 20.243H8.06747C8.19179 20.243 8.31102 20.1936 8.39893 20.1057C8.48684 20.0178 8.53622 19.8986 8.53622 19.7743V17.6699C8.53622 17.5456 8.48684 17.4264 8.39893 17.3385C8.31102 17.2506 8.19179 17.2012 8.06747 17.2012Z" fill="#3D3D54"/>
<path d="M18.9014 22.3516H18.3155C18.4398 22.3516 18.559 22.4009 18.6469 22.4889C18.7348 22.5768 18.7842 22.696 18.7842 22.8203V24.9229C18.7842 25.0473 18.7348 25.1665 18.6469 25.2544C18.559 25.3423 18.4398 25.3917 18.3155 25.3917H18.9014C19.0257 25.3917 19.1449 25.3423 19.2329 25.2544C19.3208 25.1665 19.3701 25.0473 19.3701 24.9229V22.8203C19.3701 22.696 19.3208 22.5768 19.2329 22.4889C19.1449 22.4009 19.0257 22.3516 18.9014 22.3516Z" fill="#3D3D54"/>
<path d="M18.9014 12.0525H18.3155C18.4398 12.0525 18.559 12.1019 18.6469 12.1898C18.7348 12.2777 18.7842 12.3969 18.7842 12.5212V14.6256C18.7842 14.7499 18.7348 14.8691 18.6469 14.957C18.559 15.0449 18.4398 15.0943 18.3155 15.0943H18.9014C19.0257 15.0943 19.1449 15.0449 19.2329 14.957C19.3208 14.8691 19.3701 14.7499 19.3701 14.6256V12.5212C19.3701 12.3969 19.3208 12.2777 19.2329 12.1898C19.1449 12.1019 19.0257 12.0525 18.9014 12.0525Z" fill="#3D3D54"/>
<path d="M13.4836 12.0525H12.8976C13.022 12.0525 13.1412 12.1019 13.2291 12.1898C13.317 12.2777 13.3664 12.3969 13.3664 12.5212V14.6256C13.3664 14.7499 13.317 14.8691 13.2291 14.957C13.1412 15.0449 13.022 15.0943 12.8976 15.0943H13.4836C13.6079 15.0943 13.7271 15.0449 13.815 14.957C13.9029 14.8691 13.9523 14.7499 13.9523 14.6256V12.5212C13.9523 12.3969 13.9029 12.2777 13.815 12.1898C13.7271 12.1019 13.6079 12.0525 13.4836 12.0525Z" fill="#3D3D54"/>
<path d="M24.3192 17.2012H23.7333C23.8576 17.2012 23.9768 17.2506 24.0647 17.3385C24.1526 17.4264 24.202 17.5456 24.202 17.6699V19.7743C24.202 19.8986 24.1526 20.0178 24.0647 20.1057C23.9768 20.1936 23.8576 20.243 23.7333 20.243H24.3192C24.4435 20.243 24.5628 20.1936 24.6507 20.1057C24.7386 20.0178 24.788 19.8986 24.788 19.7743V17.6699C24.788 17.5456 24.7386 17.4264 24.6507 17.3385C24.5628 17.2506 24.4435 17.2012 24.3192 17.2012Z" fill="#3D3D54"/>
<path d="M18.9014 17.2012H18.3155C18.4398 17.2012 18.559 17.2506 18.6469 17.3385C18.7348 17.4264 18.7842 17.5456 18.7842 17.6699V19.7743C18.7842 19.8986 18.7348 20.0178 18.6469 20.1057C18.559 20.1936 18.4398 20.243 18.3155 20.243H18.9014C19.0257 20.243 19.1449 20.1936 19.2329 20.1057C19.3208 20.0178 19.3701 19.8986 19.3701 19.7743V17.6699C19.3701 17.5456 19.3208 17.4264 19.2329 17.3385C19.1449 17.2506 19.0257 17.2012 18.9014 17.2012Z" fill="#3D3D54"/>
<path d="M22.831 14.9598C22.7074 14.9598 22.5888 14.911 22.501 14.824L21.5377 13.8689C21.4501 13.7812 21.4007 13.6624 21.4004 13.5385C21.4002 13.4145 21.449 13.2955 21.5363 13.2074C21.6236 13.1194 21.7422 13.0695 21.8662 13.0687C21.9901 13.0679 22.1094 13.1163 22.1978 13.2032L22.8013 13.8013L24.0282 12.3528C24.1085 12.2579 24.2233 12.1989 24.3472 12.1886C24.4711 12.1784 24.594 12.2177 24.6889 12.2981C24.7837 12.3785 24.8428 12.4932 24.853 12.6171C24.8633 12.741 24.8239 12.8639 24.7436 12.9588L23.1889 14.794C23.1471 14.8434 23.0956 14.8835 23.0375 14.912C22.9795 14.9404 22.9162 14.9565 22.8516 14.9593C22.8446 14.9596 22.8378 14.9598 22.831 14.9598Z" fill="#D22E2E"/>
<path d="M24.4597 28.229C24.4162 28.2726 24.3645 28.3071 24.3076 28.3307C24.2508 28.3543 24.1898 28.3664 24.1282 28.3664H3.30241C2.80869 28.3659 2.33536 28.1695 1.98625 27.8204C1.63714 27.4712 1.44076 26.9979 1.44019 26.5042V27.8761C1.44076 28.3698 1.63714 28.8431 1.98625 29.1922C2.33536 29.5413 2.80869 29.7377 3.30241 29.7383H26.6992C27.1928 29.7376 27.6658 29.5411 28.0147 29.192C28.3635 28.8428 28.5596 28.3696 28.5598 27.8761V23.9331C28.5598 24.0574 28.5105 24.1766 28.4226 24.2645L24.4597 28.229Z" fill="#D1C9C9"/>
<path d="M28.5598 23.933V23.8716H25.0161C24.7674 23.8716 24.529 23.9704 24.3532 24.1462C24.1774 24.322 24.0786 24.5604 24.0786 24.8091V28.3664H24.1282C24.1898 28.3664 24.2508 28.3542 24.3076 28.3306C24.3645 28.3071 24.4162 28.2725 24.4597 28.229L28.4226 24.2644C28.5105 24.1765 28.5598 24.0573 28.5598 23.933Z" fill="#BCB3B3"/>
<path d="M26.6992 3.66016H21.7535V5.43449C21.7811 5.49602 21.996 5.64654 22.3512 5.64654C22.4755 5.64654 22.5947 5.69593 22.6826 5.78384C22.7705 5.87174 22.8199 5.99097 22.8199 6.11529C22.8199 6.23961 22.7705 6.35884 22.6826 6.44675C22.5947 6.53466 22.4755 6.58404 22.3512 6.58404C21.4904 6.58404 20.816 6.08195 20.816 5.44094V3.66016H14.4024V5.43414C14.4304 5.4959 14.6456 5.64654 15 5.64654C15.1243 5.64654 15.2436 5.69593 15.3315 5.78384C15.4194 5.87174 15.4688 5.99097 15.4688 6.11529C15.4688 6.23961 15.4194 6.35884 15.3315 6.44675C15.2436 6.53466 15.1243 6.58404 15 6.58404C14.1392 6.58404 13.4649 6.08195 13.4649 5.44094V3.66016H7.05306V5.43414C7.08106 5.4959 7.29628 5.64654 7.65071 5.64654C7.77503 5.64654 7.89426 5.69593 7.98217 5.78384C8.07008 5.87174 8.11946 5.99097 8.11946 6.11529C8.11946 6.23961 8.07008 6.35884 7.98217 6.44675C7.89426 6.53466 7.77503 6.58404 7.65071 6.58404C6.78997 6.58404 6.11556 6.08195 6.11556 5.44094V3.66016H3.30241C2.8087 3.6607 2.33536 3.85706 1.98624 4.20617C1.63712 4.55527 1.44074 5.02861 1.44019 5.52232V9.51883H28.5598V5.52232C28.5595 5.02881 28.3635 4.55557 28.0146 4.20646C27.6658 3.85734 27.1928 3.66087 26.6992 3.66016Z" fill="#D22E2E"/>
<path d="M1.44019 9.5188H28.5598V10.2508H1.44019V9.5188Z" fill="#D1C9C9"/>
<path d="M15.4687 6.11521C15.4687 6.23953 15.4194 6.35876 15.3314 6.44667C15.2435 6.53458 15.1243 6.58396 15 6.58396C14.1392 6.58396 13.4648 6.08187 13.4648 5.44086V2.40312C13.4648 1.76311 14.1392 1.26172 15 1.26172C15.8608 1.26172 16.5351 1.76311 16.5351 2.40312V3.66008H15.5976V2.41068C15.5683 2.34898 15.3524 2.19922 15 2.19922C14.6475 2.19922 14.4316 2.34898 14.4023 2.41068V5.43412C14.4303 5.49588 14.6456 5.64652 15 5.64652C15.1243 5.64652 15.2435 5.6959 15.3314 5.7838C15.4193 5.87169 15.4687 5.9909 15.4687 6.11521ZM7.65057 5.64646C7.29626 5.64646 7.08104 5.49582 7.05292 5.43406V2.41063C7.08221 2.34893 7.29802 2.19916 7.65057 2.19916C8.00313 2.19916 8.21893 2.34893 8.24823 2.41063V3.66008H9.18573V2.40312C9.18573 1.76311 8.51149 1.26172 7.65057 1.26172C6.78966 1.26172 6.11542 1.76311 6.11542 2.40312V5.44086C6.11542 6.08187 6.78971 6.58396 7.65057 6.58396C7.77489 6.58396 7.89412 6.53458 7.98203 6.44667C8.06994 6.35876 8.11932 6.23953 8.11932 6.11521C8.11932 5.99089 8.06994 5.87167 7.98203 5.78376C7.89412 5.69585 7.77489 5.64646 7.65057 5.64646ZM22.351 5.64646C21.996 5.64646 21.781 5.49594 21.7534 5.43441V2.41016C21.7821 2.34863 21.9977 2.19922 22.351 2.19922C22.7033 2.19922 22.9183 2.34887 22.9469 2.41016V3.66008H23.8844V2.40312C23.8844 1.76311 23.2106 1.26172 22.351 1.26172C21.4902 1.26172 20.8159 1.76311 20.8159 2.40312V5.44086C20.8159 6.08187 21.4901 6.58396 22.351 6.58396C22.4754 6.58396 22.5946 6.53458 22.6825 6.44667C22.7704 6.35876 22.8198 6.23953 22.8198 6.11521C22.8198 5.99089 22.7704 5.87167 22.6825 5.78376C22.5946 5.69585 22.4754 5.64646 22.351 5.64646Z" fill="#484868"/>
<path d="M7.65351 5.23633C7.43842 5.23634 7.23088 5.31561 7.07056 5.45898C7.13314 5.52895 7.33733 5.64648 7.65064 5.64648C7.77496 5.64648 7.89418 5.69587 7.98209 5.78378C8.07 5.87169 8.11939 5.99091 8.11939 6.11523C8.11939 6.23955 8.07 6.35878 7.98209 6.44669C7.89418 6.5346 7.77496 6.58398 7.65064 6.58398C7.36663 6.58658 7.08546 6.52727 6.82669 6.4102C6.88082 6.56177 6.97555 6.69556 7.10054 6.79695C7.22553 6.89835 7.37598 6.96346 7.53545 6.98517C7.69493 7.00689 7.8573 6.98437 8.00485 6.92008C8.1524 6.85579 8.27945 6.7522 8.37213 6.62061C8.46481 6.48903 8.51956 6.33451 8.5304 6.17393C8.54124 6.01335 8.50776 5.85288 8.4336 5.71003C8.35945 5.56718 8.24747 5.44746 8.1099 5.36392C7.97233 5.28038 7.81445 5.23625 7.65351 5.23633Z" fill="#AD1E1E"/>
<path d="M15 5.23633C14.7857 5.23627 14.5788 5.3149 14.4187 5.45729C14.4796 5.52707 14.6844 5.64643 15 5.64643C15.1243 5.64643 15.2436 5.69581 15.3315 5.78372C15.4194 5.87163 15.4688 5.99086 15.4688 6.11518C15.4688 6.2395 15.4194 6.35872 15.3315 6.44663C15.2436 6.53454 15.1243 6.58393 15 6.58393C14.7147 6.58655 14.4322 6.52667 14.1725 6.4085C14.2263 6.56028 14.3208 6.69436 14.4456 6.79608C14.5705 6.8978 14.7209 6.96324 14.8804 6.98525C15.0399 7.00726 15.2024 6.985 15.3501 6.9209C15.4979 6.85679 15.6251 6.75331 15.718 6.62177C15.8109 6.49022 15.8659 6.33567 15.8769 6.17501C15.8878 6.01435 15.8545 5.85376 15.7803 5.71079C15.7062 5.56782 15.5942 5.44797 15.4566 5.36435C15.319 5.28072 15.161 5.23654 15 5.23662V5.23633Z" fill="#AD1E1E"/>
<path d="M22.3502 5.23639C22.136 5.23631 21.9293 5.31485 21.7692 5.45711C21.8291 5.5266 22.034 5.64648 22.351 5.64648C22.4754 5.64648 22.5946 5.69587 22.6825 5.78378C22.7704 5.87169 22.8198 5.99091 22.8198 6.11523C22.8198 6.23955 22.7704 6.35878 22.6825 6.44669C22.5946 6.5346 22.4754 6.58398 22.351 6.58398C22.0653 6.58665 21.7825 6.52665 21.5225 6.4082C21.5763 6.55998 21.6708 6.69406 21.7956 6.79577C21.9205 6.89749 22.0709 6.96293 22.2304 6.98495C22.3899 7.00697 22.5524 6.98472 22.7001 6.92063C22.8478 6.85654 22.9751 6.75308 23.068 6.62155C23.1609 6.49002 23.2159 6.33548 23.2269 6.17483C23.2379 6.01417 23.2045 5.85359 23.1304 5.71061C23.0564 5.56764 22.9444 5.44778 22.8068 5.36413C22.6692 5.28049 22.5112 5.23633 22.3502 5.23639Z" fill="#AD1E1E"/>
</svg>
