<svg width="34" height="34" viewBox="0 0 34 34" fill="none" xmlns="http://www.w3.org/2000/svg">
<path d="M5.74942 23.9343H18.5243V26.6395H5.74942V23.9343Z" fill="#C5D3DE"/>
<path d="M5.74942 26.6394H8.45459V33.3355H5.74942V26.6394Z" fill="#8AA8BD"/>
<path d="M8.45474 15.1221V23.9343H5.7493V14.0642L8.45474 15.1221Z" fill="#8AA8BD"/>
<path d="M15.8192 26.6394H18.5244V33.3355H15.8192V26.6394Z" fill="#8AA8BD"/>
<path d="M14.2594 9.4703C14.8664 8.62162 15.474 7.77226 16.0823 6.92291C15.1805 6.51982 14.2793 6.11606 13.3782 5.71297L12.3994 2.25049L17.858 4.33435C19.4784 4.95327 20.1066 6.91561 19.1457 8.35997C18.2738 9.67085 17.4018 10.9804 16.5306 12.2913L14.2594 9.4703Z" fill="#FFCD69"/>
<path d="M10.3454 19.3172L9.40702 15.4948L3.5718 13.2131C2.70585 12.8744 2.04775 12.128 1.87244 11.2149C1.72501 10.4492 1.90498 9.6211 2.45749 8.96367L6.02888 4.71094L7.23417 7.73845C6.59002 8.59976 5.94587 9.46039 5.30172 10.3217L6.08067 10.7607C7.0469 11.3059 8.25419 10.9074 8.7476 9.91396C8.814 9.78114 8.88904 9.65364 8.97405 9.53278C9.12545 9.31563 9.30608 9.11906 9.51062 8.95039L11.8946 8.34342C14.2873 8.72194 16.5332 11.4712 17.1076 13.8081L18.4603 19.3172H10.3454Z" fill="#FFCD69"/>
<path d="M10.9552 8.80683C12.7911 8.22231 13.8056 6.26011 13.221 4.42421L12.7976 3.09453C12.2131 1.25863 10.2509 0.244124 8.41503 0.828709C6.57913 1.41323 5.56462 3.37543 6.1492 5.21133L6.57249 6.54101C7.15707 8.37691 9.11921 9.39141 10.9552 8.80683Z" fill="#FFDCD5"/>
<path d="M18.5241 23.9343C20.4174 25.9491 23.6933 29.9741 25.5859 31.9882L27.8052 29.9057L23.6933 23.9602L18.5241 23.9343Z" fill="#33D6F5"/>
<path d="M27.7181 29.9847L25.5857 31.9881L26.2499 32.6949C27.0183 33.5129 28.3044 33.5529 29.1223 32.7844L31.2255 30.8084C31.9114 30.164 31.5119 29.0128 30.5745 28.9296C29.6121 28.8442 28.5521 29.2011 27.7181 29.9847Z" fill="#8AA8BD"/>
<path d="M20.705 19.5134C19.8085 19.3923 19.0344 19.3171 18.4604 19.3171H10.3454C10.3454 21.8672 12.4133 23.9344 14.964 23.9344H18.5241C22.0948 23.9524 25.6649 23.9703 29.235 23.9882L29.1473 20.9302C28.3675 20.8075 27.5329 20.6641 26.6815 20.5143L20.705 19.5134Z" fill="#33D6F5"/>
<path d="M29.1492 21.0634L29.2352 23.988L30.2046 23.9595C31.3265 23.9266 32.2091 22.9904 32.1762 21.8686L32.0915 18.9838C32.0638 18.0432 30.9372 17.579 30.2534 18.2255C29.5513 18.8894 29.1156 19.9195 29.1492 21.0634Z" fill="#8AA8BD"/>
<path d="M30.6332 28.2684C29.7131 28.1867 28.7738 28.4354 27.9581 28.9596L24.9644 24.631C24.9644 24.631 30.2022 24.6236 30.2241 24.6235C31.7101 24.5798 32.8836 23.3353 32.8399 21.8493L32.7563 19.0044C32.7357 18.3025 32.318 17.661 31.6683 17.3945C31.022 17.1295 30.3054 17.2628 29.7971 17.7433C29.136 18.3683 28.702 19.2195 28.5471 20.1606C27.9303 20.0586 27.3209 19.9526 26.8188 19.8644C26.4705 19.8031 26.1204 20.0125 26.0366 20.3561C25.9448 20.7327 26.1908 21.1025 26.5665 21.1685C27.1211 21.2661 27.8092 21.3858 28.4975 21.4985L28.5511 23.3209L14.964 23.2706C13.0098 23.2706 11.3821 21.8461 11.0652 19.9814H18.4603C18.9632 19.9814 19.6682 20.0437 20.616 20.1718C20.6461 20.1758 20.6761 20.1778 20.7058 20.1778C21.0403 20.1778 21.3305 19.925 21.3657 19.5803C21.4024 19.2197 21.129 18.9007 20.7697 18.8523C20.0568 18.7564 19.4676 18.696 18.985 18.6693L17.7525 13.6497C17.647 13.2206 17.4905 12.7813 17.2924 12.345C17.7733 11.6218 19.6985 8.72797 19.6985 8.72797C20.2688 7.87085 20.4161 6.81683 20.1026 5.83619C19.7889 4.85516 19.0572 4.08171 18.0949 3.71414L12.8246 1.70207C11.799 0.302132 9.95613 -0.358888 8.21347 0.196013C6.33347 0.794609 5.17632 2.61504 5.33623 4.50313L1.94912 8.53645C1.29315 9.317 1.02759 10.339 1.2203 11.3401C1.4336 12.4514 2.24198 13.406 3.33 13.8316L5.08528 14.5179C5.08528 14.5179 5.08535 31.4671 5.08535 33.3358C5.08535 33.7026 5.38272 33.9999 5.74942 33.9999H8.45459C8.82136 33.9999 9.11867 33.7026 9.11867 33.3358V27.3038H15.155V33.3358C15.155 33.7026 15.4523 33.9999 15.8191 33.9999H18.5243C18.891 33.9999 19.1884 33.7026 19.1884 33.3358V25.6585C19.922 26.4905 25.7659 33.1499 25.7659 33.1499C26.2589 33.6748 26.9269 33.9762 27.6468 33.9986C27.6756 33.9995 27.7042 34 27.7329 34C28.4211 34 29.0731 33.7421 29.5769 33.2687L31.6801 31.2926C32.1905 30.8132 32.3653 30.1045 32.1366 29.4428C31.9078 28.7805 31.3317 28.3304 30.6332 28.2684ZM30.7096 18.7083C30.891 18.5369 31.089 18.5921 31.1657 18.6239C31.242 18.6555 31.4203 18.7556 31.4275 19.0037L31.5122 21.8883C31.5344 22.6423 30.939 23.2738 30.185 23.296L29.8793 23.3049L29.8129 21.0441C29.7863 20.1374 30.1215 19.2643 30.7096 18.7083ZM17.8603 24.5986V25.9756H6.41349V24.5986H17.8603ZM11.4664 23.2705H9.1188V17.1063L9.56565 18.9266C9.63239 19.1985 9.67775 19.4753 9.70073 19.7543C9.81568 21.1498 10.4751 22.3929 11.4664 23.2705ZM18.8375 6.24048C19.0274 6.8345 18.9382 7.47294 18.5927 7.99224C18.5927 7.99224 16.9202 10.5064 16.5655 11.0397C16.2988 10.6389 16 10.2532 15.6747 9.89495C15.5045 9.70755 15.3294 9.53183 15.151 9.36561C15.6375 8.6854 16.1241 8.00506 16.6115 7.32458C16.6904 7.21448 16.7416 7.08472 16.7462 6.94938C16.7558 6.67027 16.5954 6.42496 16.3533 6.31672C15.8259 6.08104 14.0444 5.28368 14.0444 5.28368C14.0276 4.93099 13.9658 4.57492 13.8537 4.22289L13.5978 3.4189L17.6211 4.95477C18.2041 5.17743 18.6475 5.64607 18.8375 6.24048ZM13.8764 6.6635C13.8764 6.6635 14.7891 7.07204 15.0691 7.19735C14.7482 7.64573 14.4276 8.09398 14.107 8.54216C13.7989 8.34108 13.4854 8.17128 13.17 8.03508C13.4881 7.62587 13.7282 7.16022 13.8764 6.6635ZM8.61643 1.46154C8.90032 1.37109 9.18819 1.32813 9.47149 1.32813C10.6686 1.32813 11.7827 2.09593 12.1649 3.29604L12.5883 4.62572C13.0607 6.10979 12.2378 7.70158 10.7537 8.17413C9.26961 8.64669 7.67789 7.8237 7.2052 6.33963L6.78186 5.00995C6.30943 3.52588 7.13242 1.93409 8.61643 1.46154ZM7.31776 8.73541C7.6229 8.9766 7.96005 9.17423 8.31879 9.32199C8.26015 9.41675 8.20443 9.51543 8.1529 9.61856C7.99552 9.93546 7.72962 10.1685 7.40203 10.2776C7.06289 10.3906 6.69035 10.3421 6.37896 10.1665L6.28626 10.1142L7.31776 8.73541ZM2.52454 11.0894C2.4078 10.4827 2.56864 9.86367 2.96609 9.39078L5.73361 6.09518L5.93974 6.74259C6.05383 7.10099 6.21301 7.43263 6.40792 7.73445L4.76998 9.92397C4.65556 10.0769 4.61259 10.2717 4.65197 10.4587C4.69142 10.6456 4.80936 10.8065 4.97577 10.9003C5.56899 11.2404 6.30299 11.7128 7.00671 11.6711C7.25919 11.6711 7.5134 11.6332 7.76276 11.5566C8.44556 11.3468 9.02138 10.8558 9.34166 10.211C9.39485 10.1045 9.45396 10.0049 9.51877 9.91268C9.5885 9.81267 9.66666 9.7197 9.75073 9.6329C9.80021 9.6347 9.84981 9.63589 9.89948 9.63589C10.3158 9.63589 10.7393 9.57267 11.1567 9.43979C11.4676 9.34078 11.758 9.20737 12.0268 9.04679C14.0569 9.52439 15.9704 11.9633 16.4628 13.9665L17.6136 18.6532H10.8662L10.052 15.3366C10.0005 15.1268 9.85014 14.9551 9.64893 14.8764L3.81378 12.5947C3.14671 12.3338 2.65277 11.7571 2.52454 11.0894ZM7.79072 15.5758V23.2705H6.41343V15.0373L7.79072 15.5758ZM7.79052 32.6718H6.41349V27.3038H7.79052V32.6718ZM16.4832 32.6718V27.3038H17.8602V32.6718H16.4832ZM20.0307 24.6062L23.344 24.6229L26.9327 29.8118L25.6196 31.0454C24.738 30.0748 20.8097 25.4852 20.0307 24.6062ZM30.7708 30.3247L28.6675 32.3007C28.4018 32.5504 28.0557 32.6819 27.6906 32.6712C27.3167 32.6601 26.9657 32.4872 26.7096 32.2146L26.5245 32.0176L28.1729 30.469C28.1729 30.469 28.1729 30.469 28.1729 30.4689C28.8338 29.8479 29.7093 29.52 30.5158 29.5914C30.7644 29.6135 30.8543 29.7983 30.8814 29.8767C30.9084 29.9548 30.9516 30.1547 30.7708 30.3247Z" fill="black"/>
<path d="M23.5807 20.6422C24.0352 20.7167 24.4226 20.3294 24.3481 19.8749C24.3029 19.5996 24.081 19.3777 23.8057 19.3325C23.3512 19.2579 22.9638 19.6453 23.0384 20.0998C23.0835 20.3751 23.3055 20.597 23.5807 20.6422Z" fill="black"/>
</svg>
