<svg width="33" height="33" viewBox="0 0 33 33" fill="none" xmlns="http://www.w3.org/2000/svg">
<g clip-path="url(#clip0_250_6187)">
<path d="M13.8975 22.4739C13.5525 22.4739 13.2725 22.7539 13.2725 23.0989C13.2725 23.4438 13.5525 23.7239 13.8975 23.7239C14.2424 23.7239 14.5225 23.4438 14.5225 23.0989C14.5225 22.7539 14.2424 22.4739 13.8975 22.4739Z" fill="black"/>
<path d="M23.2725 16.8489V10.5271C23.2725 9.35864 22.8174 8.26001 21.9912 7.43384L20.0718 5.5144C19.7883 5.23096 19.6069 4.87256 19.5459 4.48389C20.2468 4.22583 20.7725 3.54736 20.7725 2.72388C20.7725 1.68994 19.9314 0.848877 18.8975 0.848877H13.8975C12.8616 0.848877 12.0225 1.68799 12.0225 2.72388C12.0225 3.53003 12.5339 4.21875 13.2493 4.48315C13.188 4.87207 13.0068 5.23071 12.7231 5.5144L10.8037 7.43384C9.97754 8.26001 9.52246 9.3584 9.52246 10.5271V16.8489C9.52246 17.7781 9.93066 18.6135 10.5764 19.1863C9.93945 19.6399 9.52246 20.384 9.52246 21.2239C9.52246 21.9697 9.85156 22.6394 10.3713 23.0979C9.81982 23.5845 9.52246 24.2605 9.52246 24.9739C9.52246 25.6194 9.76855 26.2197 10.1848 26.6704C9.78003 27.0146 9.52246 27.5271 9.52246 28.0989V29.7239C9.52246 31.447 10.9243 32.8489 12.6475 32.8489H20.1475C21.8706 32.8489 23.2725 31.447 23.2725 29.7239V28.0989C23.2725 27.5266 23.0144 27.0134 22.6089 26.6694C23.0374 26.2061 23.2725 25.6082 23.2725 24.9739C23.2725 24.2278 22.9434 23.5574 22.4233 23.0989C22.9434 22.6404 23.2725 21.97 23.2725 21.2239C23.2725 20.3782 22.8608 19.6343 22.2231 19.1826C22.873 18.6016 23.2725 17.7583 23.2725 16.8489ZM13.8975 2.09888H18.8975C19.2422 2.09888 19.5225 2.37915 19.5225 2.72388C19.5225 3.06885 19.2424 3.34888 18.8975 3.34888H13.8975C13.5527 3.34888 13.2725 3.0686 13.2725 2.72388C13.2725 2.37891 13.5525 2.09888 13.8975 2.09888ZM10.7725 10.5271C10.7725 9.69238 11.0974 8.90771 11.6875 8.31763L13.6069 6.39819C14.0994 5.90576 14.4065 5.27808 14.4951 4.59888H18.3C18.3887 5.27808 18.6956 5.90576 19.188 6.39819L21.1074 8.31763C21.6975 8.90771 22.0225 9.69238 22.0225 10.5271V16.8489C22.0225 17.873 21.1907 18.7239 20.1475 18.7239H12.6475C11.6135 18.7239 10.7725 17.8828 10.7725 16.8489V10.5271ZM22.0225 29.7239C22.0225 30.7578 21.1814 31.5989 20.1475 31.5989H12.6475C11.6135 31.5989 10.7725 30.7578 10.7725 29.7239V28.0989C10.7725 27.7542 11.0527 27.4739 11.3975 27.4739H21.3975C21.7422 27.4739 22.0225 27.7542 22.0225 28.0989V29.7239ZM16.3975 22.4739C16.0522 22.4739 15.7725 22.7537 15.7725 23.0989C15.7725 23.4441 16.0522 23.7239 16.3975 23.7239H20.7725C21.4617 23.7239 22.0225 24.2847 22.0225 24.9739C22.0225 25.677 21.4487 26.2239 20.7725 26.2239H12.0225C11.3406 26.2239 10.7725 25.6741 10.7725 24.9739C10.7725 24.2834 11.332 23.7239 12.0225 23.7239C12.3677 23.7239 12.6475 23.4441 12.6475 23.0989C12.6475 22.7537 12.3677 22.4739 12.0225 22.4739C11.3333 22.4739 10.7725 21.9131 10.7725 21.2239C10.7725 20.5347 11.3333 19.9739 12.0225 19.9739C12.3452 19.9739 20.7473 19.9727 20.8108 19.9741C21.4902 19.9944 22.0225 20.5437 22.0225 21.2239C22.0225 21.9131 21.4617 22.4739 20.7725 22.4739H16.3975Z" fill="black"/>
<path d="M16.3974 16.2239C18.3293 16.2239 19.5138 14.1245 18.5636 12.4751L16.9386 9.66138C16.8268 9.46802 16.6205 9.34888 16.3974 9.34888C16.1742 9.34888 15.9679 9.46802 15.8561 9.66138L14.2309 12.4756C13.2792 14.1277 14.4684 16.2239 16.3974 16.2239ZM15.3136 13.1001L16.3974 11.2236L17.4809 13.0996C17.9565 13.9258 17.362 14.9739 16.3974 14.9739C15.4347 14.9739 14.8371 13.9277 15.3136 13.1001Z" fill="black"/>
</g>
<defs>
<clipPath id="clip0_250_6187">
<rect width="32" height="32" fill="white" transform="translate(0.397461 0.848877)"/>
</clipPath>
</defs>
</svg>
