<svg width="168" height="168" viewBox="0 0 168 168" fill="none" xmlns="http://www.w3.org/2000/svg">
<g clip-path="url(#clip0_292_6608)">
<path d="M119.741 165.265H81.1694C79.4315 165.265 78.0225 163.857 78.0225 162.119V153.986C78.0225 152.248 79.4315 150.839 81.1694 150.839H119.741C121.479 150.839 122.888 152.248 122.888 153.986V162.119C122.888 163.857 121.479 165.265 119.741 165.265Z" fill="#E5ECF7"/>
<path d="M119.741 159.394H81.1694C79.4315 159.394 78.0225 157.985 78.0225 156.248V162.119C78.0225 163.856 79.4315 165.266 81.1694 165.266H119.741C121.479 165.266 122.888 163.856 122.888 162.119V156.248C122.888 157.985 121.479 159.394 119.741 159.394Z" fill="#B9CBEA"/>
<path d="M8.25195 62.5078C5.54995 62.5078 3.35938 60.3172 3.35938 57.6152V8.37695C3.35938 5.67495 5.54995 3.48438 8.25195 3.48438H160.248C162.95 3.48438 165.141 5.67495 165.141 8.37695V57.6152C165.141 60.3172 162.95 62.5078 160.248 62.5078H8.25195Z" fill="#DE5974"/>
<path d="M160.248 56.6367H8.25195C5.54995 56.6367 3.35938 54.4461 3.35938 51.7441V57.6152C3.35938 60.3172 5.54995 62.5078 8.25195 62.5078H160.248C162.95 62.5078 165.141 60.3172 165.141 57.6152V51.7441C165.141 54.4461 162.95 56.6367 160.248 56.6367Z" fill="#C7495D"/>
<path d="M130.527 17.1354L127.979 22.2974C127.573 23.1204 126.788 23.6908 125.88 23.8229L120.183 24.6508C117.896 24.9831 116.982 27.7941 118.638 29.4073L122.76 33.4254C123.417 34.066 123.717 34.9891 123.562 35.8936L122.589 41.5673C122.198 43.8453 124.589 45.5825 126.635 44.5071L131.73 41.8283C132.543 41.401 133.513 41.401 134.326 41.8283L139.421 44.5071C141.466 45.5828 143.858 43.8453 143.467 41.5673L142.494 35.8936C142.339 34.9891 142.639 34.066 143.296 33.4254L147.418 29.4073C149.073 27.7941 148.16 24.9831 145.873 24.6508L140.176 23.8229C139.268 23.6908 138.483 23.1204 138.076 22.2974L135.529 17.1354C134.506 15.0629 131.55 15.0629 130.527 17.1354Z" fill="#FFE07D"/>
<path d="M143.315 40.6832L134.325 35.9569C133.513 35.53 132.542 35.53 131.73 35.9569L122.74 40.6832L122.588 41.5671C122.197 43.8451 124.589 45.5823 126.634 44.5069L131.73 41.828C132.542 41.4007 133.512 41.4007 134.325 41.828L139.42 44.5069C141.466 45.5826 143.857 43.8451 143.466 41.5671L143.315 40.6832Z" fill="#FFD064"/>
<path d="M118.596 150.839V142.221C118.596 142.221 127.739 132.578 127.739 110.151V95.2083C127.739 91.7795 124.96 89.0002 121.531 89.0002C118.102 89.0002 115.323 91.7795 115.323 95.2083V90.9429C115.323 87.5142 112.544 84.7349 109.115 84.7349C105.686 84.7349 102.907 87.5142 102.907 90.9429V86.6779C102.907 83.2492 100.128 80.4699 96.6991 80.4699C93.2703 80.4699 90.491 83.2492 90.491 86.6779V58.8858C90.491 55.457 87.7117 52.6777 84.283 52.6777C80.8543 52.6777 78.075 55.457 78.075 58.8858V114.377H77.982L67.9927 103.182C64.8663 99.6784 60.3935 97.6748 55.6976 97.6748C53.2784 97.6748 51.7402 100.263 52.8968 102.388L62.6392 120.285C64.9296 124.493 67.8629 128.316 71.333 131.618L82.4754 142.221V150.839H118.596Z" fill="#F0C69E"/>
<path d="M82.476 144.968H118.596V150.839H82.476V144.968Z" fill="#E6BA94"/>
<path d="M81.7502 17.1354L79.2025 22.2974C78.7964 23.1204 78.0113 23.6908 77.1029 23.8229L71.4063 24.6508C69.1192 24.9831 68.2056 27.7941 69.8609 29.4073L73.983 33.4254C74.6403 34.066 74.9404 34.9891 74.7851 35.8936L73.8121 41.5673C73.4214 43.8453 75.8126 45.5825 77.8583 44.5071L82.9534 41.8283C83.7659 41.401 84.7363 41.401 85.5488 41.8283L90.6439 44.5071C92.6897 45.5828 95.0808 43.8453 94.6901 41.5673L93.7171 35.8936C93.5618 34.9891 93.8619 34.066 94.5192 33.4254L98.6413 29.4073C100.296 27.7941 99.383 24.9831 97.0959 24.6508L91.3993 23.8229C90.4909 23.6908 89.7058 23.1204 89.2998 22.2974L86.7524 17.1354C85.7288 15.0629 82.7734 15.0629 81.7502 17.1354Z" fill="#FFE07D"/>
<path d="M94.5384 40.6832L85.5488 35.9569C84.7363 35.53 83.766 35.53 82.9535 35.9569L73.9635 40.6832L73.8118 41.5671C73.4211 43.8451 75.8123 45.5823 77.858 44.5069L82.9531 41.828C83.7656 41.4007 84.736 41.4007 85.5485 41.828L90.6436 44.5069C92.6894 45.5826 95.0805 43.8451 94.6898 41.5671L94.5384 40.6832Z" fill="#FFD064"/>
<path d="M32.9734 17.1354L30.4257 22.2974C30.0196 23.1204 29.2342 23.6908 28.3262 23.8229L22.6296 24.6508C20.3424 24.9831 19.4288 27.7941 21.0842 29.4073L25.2063 33.4254C25.8636 34.066 26.1633 34.9891 26.0084 35.8936L25.0354 41.5673C24.6446 43.8453 27.0358 45.5825 29.0816 44.5071L34.1767 41.8283C34.9892 41.401 35.9596 41.401 36.772 41.8283L41.8672 44.5071C43.9129 45.5828 46.3041 43.8453 45.9133 41.5673L44.9404 35.8936C44.7851 34.9891 45.0852 34.066 45.7424 33.4254L49.8646 29.4073C51.5196 27.7941 50.6063 24.9831 48.3192 24.6508L42.6226 23.8229C41.7142 23.6908 40.9291 23.1204 40.523 22.2974L37.9753 17.1354C36.9521 15.0629 33.9963 15.0629 32.9734 17.1354Z" fill="#FFE07D"/>
<path d="M45.7617 40.6832L36.7717 35.9569C35.9592 35.53 34.9889 35.53 34.1764 35.9569L25.1864 40.6832L25.0347 41.5671C24.644 43.8451 27.0352 45.5823 29.0809 44.5069L34.176 41.828C34.9885 41.4007 35.9589 41.4007 36.7714 41.828L41.8665 44.5069C43.9123 45.5826 46.3034 43.8451 45.9127 41.5671L45.7617 40.6832Z" fill="#FFD064"/>
<path d="M160.397 0.875H127.866C126.512 0.875 125.415 1.97224 125.415 3.32618C125.415 4.68012 126.512 5.77736 127.866 5.77736H160.397C161.748 5.77736 162.848 6.87689 162.848 8.22854V57.563C162.848 58.9147 161.748 60.0142 160.397 60.0142H92.9545V58.8357C92.9545 54.0541 89.0646 50.1645 84.2832 50.1645C79.5019 50.1645 75.6119 54.0544 75.6119 58.8357V60.0142H50.6438C49.2902 60.0142 48.1926 61.1114 48.1926 62.4654C48.1926 63.8193 49.2902 64.9166 50.6438 64.9166H75.6119V108.112L69.7901 101.587C66.1963 97.5598 61.0396 95.2499 55.6421 95.2499C53.6306 95.2499 51.8161 96.2822 50.7883 98.0116C49.7605 99.741 49.7214 101.828 50.6829 103.595L60.4446 121.528C62.8645 125.973 65.9511 129.997 69.6185 133.487L80.0215 143.385V148.636C77.477 149.165 75.5594 151.424 75.5594 154.123V162.271C75.5594 165.362 78.0732 167.875 81.1634 167.875H119.811C122.901 167.875 125.415 165.362 125.415 162.271V154.123C125.415 151.482 123.577 149.268 121.115 148.678V143.229C123.349 140.411 130.275 130.069 130.275 110.201V95.23C130.275 90.4486 126.385 86.5591 121.604 86.5591C120.006 86.5591 118.508 86.9935 117.221 87.7505C115.943 84.5518 112.813 82.2855 109.164 82.2855C107.566 82.2855 106.068 82.72 104.781 83.477C103.503 80.2783 100.373 78.012 96.7234 78.012C95.3734 78.012 94.0945 78.3219 92.9542 78.8748V64.9172H160.396C164.451 64.9172 167.75 61.6183 167.75 57.564V8.22822C167.75 4.17358 164.451 0.875 160.397 0.875ZM96.7237 82.9131C98.8021 82.9131 100.493 84.604 100.493 86.6823V90.9562C100.493 92.3101 101.59 93.4073 102.944 93.4073C104.298 93.4073 105.395 92.3101 105.395 90.9562C105.395 88.8778 107.086 87.1869 109.165 87.1869C111.243 87.1869 112.934 88.8778 112.934 90.9562V95.2297C112.934 96.5836 114.031 97.6809 115.385 97.6809C116.739 97.6809 117.836 96.5836 117.836 95.2297C117.836 93.1513 119.527 91.4608 121.605 91.4608C123.683 91.4608 125.374 93.1513 125.374 95.2297V110.201C125.374 131.259 116.962 140.566 116.886 140.648C116.454 141.103 116.213 141.707 116.213 142.334V148.518H110.292C108.938 148.518 107.84 149.615 107.84 150.969C107.84 152.323 108.938 153.42 110.292 153.42H119.811C120.198 153.42 120.513 153.735 120.513 154.123V162.271C120.513 162.659 120.198 162.973 119.811 162.973H81.1634C80.7762 162.973 80.4615 162.659 80.4615 162.271V154.123C80.4615 153.735 80.7762 153.42 81.1634 153.42H100.487C101.841 153.42 102.938 152.323 102.938 150.969C102.938 149.615 101.841 148.518 100.487 148.518H84.9238V142.334C84.9238 141.663 84.6485 141.021 84.1622 140.558L72.9977 129.935C69.7004 126.798 66.9257 123.181 64.7501 119.184L54.9884 101.251C54.7578 100.633 54.9881 100.245 55.6417 100.152C59.6439 100.152 63.4673 101.864 66.1318 104.85L76.1403 116.067C77.5605 117.738 80.5818 116.673 80.5133 114.436V58.8357C80.5133 56.7574 82.2042 55.0665 84.2826 55.0665C86.3606 55.0665 88.0515 56.7574 88.0515 58.8357V86.6823C88.0515 88.0363 89.1487 89.1335 90.5027 89.1335C91.8566 89.1335 92.9538 88.0363 92.9538 86.6823C92.9545 84.604 94.6454 82.9131 96.7237 82.9131Z" fill="black"/>
<path d="M40.8395 60.0139H8.10322C6.75156 60.0139 5.65204 58.9143 5.65204 57.5627V8.22822C5.65204 6.87656 6.75156 5.77704 8.10322 5.77704H118.062C119.416 5.77704 120.513 4.67979 120.513 3.32586C120.513 1.97192 119.416 0.875 118.062 0.875H8.10322C4.04858 0.875 0.75 4.17358 0.75 8.22822V57.5627C0.75 61.617 4.04858 64.9159 8.10322 64.9159H40.8395C42.1931 64.9159 43.2906 63.8187 43.2906 62.4647C43.2906 61.1108 42.1934 60.0139 40.8395 60.0139Z" fill="black"/>
<path d="M100.38 31.0544C101.82 29.6509 102.329 27.5908 101.707 25.6781C101.086 23.7655 99.4633 22.3975 97.473 22.1082L91.766 21.2791C91.6541 21.2628 91.5572 21.1926 91.507 21.0912L88.9544 15.9194C88.0646 14.116 86.2625 12.9956 84.251 12.9956C82.2398 12.9956 80.4374 14.1157 79.5472 15.9194L76.9946 21.0915C76.9444 21.1926 76.8478 21.2631 76.7366 21.2791L71.0283 22.1082C69.038 22.3975 67.4156 23.7655 66.7943 25.6781C66.1729 27.5908 66.6814 29.6509 68.1214 31.0544L72.2518 35.0807C72.3327 35.1596 72.3695 35.2728 72.3503 35.3844L71.3753 41.0689C71.0355 43.0507 71.8349 45.0165 73.4619 46.1986C75.0888 47.381 77.2057 47.5339 78.9859 46.5982L84.0911 43.9141C84.191 43.8612 84.3103 43.8612 84.4101 43.9141L89.5157 46.5982C90.29 47.0049 91.1277 47.2061 91.9613 47.2061C93.0442 47.2061 94.1203 46.8666 95.0398 46.1986C96.6664 45.0165 97.4658 43.0507 97.1256 41.0689L96.151 35.3844C96.1318 35.2731 96.1686 35.1596 96.2495 35.0807L100.38 31.0544ZM92.828 31.5708C91.5915 32.776 91.0275 34.5115 91.3198 36.2132L92.2947 41.8983C92.3042 41.9558 92.3306 42.1084 92.158 42.2333C91.9861 42.3586 91.8478 42.2862 91.7966 42.2594L86.6917 39.5757C85.9272 39.1735 85.0892 38.9729 84.2507 38.9729C83.4124 38.9729 82.5741 39.1738 81.8099 39.5754L76.705 42.2594C76.6535 42.2862 76.5161 42.3592 76.3433 42.2333C76.1707 42.1081 76.1968 41.9554 76.2069 41.898L77.1818 36.2132C77.4738 34.5112 76.9098 32.7756 75.6733 31.5708L71.5433 27.5448C71.5016 27.5041 71.3907 27.3958 71.4562 27.1932C71.5221 26.9903 71.6757 26.9678 71.7331 26.9597L77.4415 26.1305C79.1503 25.882 80.6262 24.8089 81.3901 23.2612L83.9427 18.0894C83.9685 18.0369 84.037 17.8983 84.2503 17.8983C84.4636 17.8983 84.5318 18.0372 84.5579 18.0894L87.1105 23.2609C87.8741 24.8092 89.3507 25.882 91.0601 26.1309L96.7675 26.96C96.8252 26.9685 96.9789 26.9907 97.0444 27.1935C97.1103 27.3961 96.9994 27.5044 96.9576 27.5452L92.828 31.5708Z" fill="black"/>
<path d="M48.254 41.0694L47.2791 35.3849C47.2598 35.2736 47.2967 35.1601 47.3779 35.0812L51.5079 31.0549C52.9479 29.6514 53.4565 27.5913 52.8351 25.6786C52.2137 23.766 50.5914 22.398 48.6007 22.1087L42.8934 21.2796C42.7815 21.2632 42.6849 21.1931 42.6347 21.0917L40.0821 15.9199C39.192 14.1165 37.3899 12.9961 35.3787 12.9961C33.3675 12.9961 31.5651 14.1162 30.675 15.9199L28.1227 21.0917C28.0724 21.1931 27.9756 21.2632 27.8644 21.2796L22.1563 22.1087C20.166 22.398 18.5437 23.766 17.9223 25.6786C17.3009 27.5913 17.8095 29.6514 19.2495 31.0549L23.3798 35.0812C23.4607 35.1601 23.4976 35.2733 23.4783 35.3849L22.5034 41.0694C22.1635 43.0515 22.963 45.0174 24.5899 46.1991C26.2172 47.3818 28.3337 47.5341 30.114 46.5987L35.2192 43.9146C35.319 43.8621 35.4384 43.8621 35.5385 43.9146L40.6441 46.5987C41.4184 47.0054 42.256 47.2066 43.0897 47.2066C44.1726 47.2066 45.2487 46.8671 46.1681 46.1991C47.7944 45.017 48.5939 43.0512 48.254 41.0694ZM43.9564 31.5706C42.7195 32.7758 42.1556 34.5114 42.4475 36.2133L43.4224 41.8982C43.4322 41.9556 43.4586 42.1082 43.2861 42.2335C43.1139 42.3594 42.9762 42.2863 42.9247 42.2596L37.8194 39.5755C37.0552 39.1737 36.217 38.9731 35.3787 38.9731C34.5404 38.9731 33.7018 39.174 32.938 39.5755L27.833 42.2596C27.7815 42.2863 27.6442 42.3591 27.4716 42.2335C27.2991 42.1086 27.3252 41.9556 27.3353 41.8982L28.3102 36.2133C28.6022 34.5114 28.0382 32.7758 26.8017 31.5709L22.6717 27.5447C22.6299 27.5039 22.519 27.3956 22.5846 27.193C22.6505 26.9902 22.8041 26.9677 22.8615 26.9595L28.5699 26.1304C30.2783 25.8818 31.7546 24.8091 32.5188 23.2611L35.0714 18.0893C35.0972 18.0368 35.1657 17.8981 35.379 17.8981C35.5923 17.8981 35.6608 18.0371 35.6866 18.0893L38.2392 23.2607C39.0031 24.8091 40.479 25.8818 42.1885 26.1307L47.8962 26.9598C47.9539 26.9683 48.1072 26.9905 48.1731 27.1934C48.239 27.3959 48.1281 27.5042 48.0864 27.545L43.9564 31.5706Z" fill="black"/>
<path d="M149.252 31.0544C150.692 29.6509 151.201 27.5908 150.58 25.6781C149.958 23.7655 148.336 22.3975 146.345 22.1082L140.638 21.2791C140.526 21.2628 140.429 21.1926 140.379 21.0912L137.827 15.9194C136.937 14.116 135.134 12.9956 133.123 12.9956C131.112 12.9956 129.31 14.1157 128.42 15.9194L125.867 21.0909C125.817 21.1923 125.72 21.2628 125.609 21.2791L119.901 22.1082C117.91 22.3975 116.288 23.7655 115.667 25.6785C115.045 27.5911 115.554 29.6512 116.994 31.0544L121.124 35.0807C121.205 35.1596 121.242 35.2728 121.222 35.3844L120.248 41.0689C119.908 43.051 120.707 45.0169 122.334 46.1989C123.96 47.3813 126.077 47.5343 127.858 46.5985L132.963 43.9144C133.063 43.8622 133.183 43.8616 133.282 43.9144L138.388 46.5985C139.162 47.0052 140 47.2065 140.833 47.2065C141.916 47.2065 142.992 46.8669 143.912 46.1989C145.538 45.0169 146.338 43.051 145.998 41.0692L145.023 35.3847C145.004 35.2735 145.041 35.16 145.121 35.081L149.252 31.0544ZM141.7 31.5708C140.464 32.776 139.9 34.5115 140.192 36.2132L141.167 41.8983C141.176 41.9558 141.203 42.1084 141.03 42.2333C140.858 42.3586 140.72 42.2862 140.669 42.2594L135.564 39.5757C134.8 39.1735 133.961 38.9729 133.123 38.9729C132.285 38.9729 131.446 39.1738 130.682 39.5754L125.577 42.2594C125.526 42.2862 125.388 42.3589 125.216 42.2333C125.044 42.1084 125.07 41.9558 125.08 41.898L126.054 36.2141C126.346 34.5122 125.782 32.7763 124.546 31.5708L120.416 27.5442C120.374 27.5037 120.263 27.3954 120.329 27.1929C120.395 26.99 120.549 26.9675 120.606 26.9593L126.314 26.1302C128.023 25.8817 129.498 24.8089 130.263 23.2609L132.816 18.0891C132.842 18.0366 132.911 17.898 133.124 17.898C133.337 17.898 133.405 18.0369 133.431 18.0891L135.983 23.2606C136.747 24.8089 138.224 25.8817 139.933 26.1305L145.64 26.9597C145.698 26.9682 145.852 26.9903 145.917 27.1932C145.984 27.3958 145.872 27.5041 145.831 27.5448L141.7 31.5708Z" fill="black"/>
</g>
<defs>
<clipPath id="clip0_292_6608">
<rect width="167" height="167" fill="white" transform="translate(0.75 0.875)"/>
</clipPath>
</defs>
</svg>
