<svg width="23" height="23" viewBox="0 0 23 23" fill="none" xmlns="http://www.w3.org/2000/svg">
<g clip-path="url(#clip0_249_5622)">
<path d="M14.0279 6.07206L13.1236 8.7387C13.0448 8.97104 13.1048 9.22799 13.2782 9.40146C13.4517 9.57496 13.7086 9.63486 13.941 9.5561L16.6076 8.65182L18.8644 10.3359C19.0609 10.4826 19.3239 10.505 19.5424 10.3936C19.7611 10.2822 19.8975 10.0564 19.8943 9.81108L19.8583 6.99551L22.1573 5.36965C22.3576 5.22799 22.4601 4.98491 22.4217 4.74257C22.3833 4.50022 22.2107 4.30076 21.9764 4.22789L19.2876 3.39206L18.4518 0.703204C18.3789 0.468896 18.1794 0.29629 17.9371 0.257919C17.9033 0.252591 17.8696 0.249971 17.8361 0.249971C17.6291 0.249971 17.4319 0.349916 17.31 0.522349L15.6842 2.82135L12.8686 2.78534C12.6242 2.78294 12.3975 2.91867 12.2861 3.13721C12.1747 3.35579 12.1971 3.61868 12.3438 3.81526L14.0279 6.07206ZM16.0065 4.11467C16.2192 4.11815 16.4185 4.01554 16.541 3.84233L17.6084 2.33297L18.1572 4.09829C18.2202 4.30089 18.3788 4.45949 18.5813 4.52248L20.3467 5.07124L18.8373 6.13867C18.6641 6.26117 18.5623 6.46102 18.565 6.67311L18.5886 8.52167L17.107 7.41604C16.937 7.28915 16.7155 7.25409 16.5146 7.3222L14.7638 7.91585L15.3575 6.16513C15.4256 5.96421 15.3906 5.74267 15.2636 5.57268L14.158 4.09108L16.0065 4.11467Z" fill="black"/>
<path d="M2.19671 16.8369C2.44834 17.0886 2.85646 17.0885 3.10821 16.8369L6.14657 13.7985C6.39829 13.5469 6.39829 13.1387 6.14657 12.887C6.02072 12.7611 5.85576 12.6982 5.69085 12.6982C5.52593 12.6982 5.36093 12.7612 5.23512 12.887L2.19676 15.9254C1.945 16.1771 1.945 16.5852 2.19671 16.8369Z" fill="black"/>
<path d="M7.0581 11.9756C7.30977 12.2272 7.71789 12.2272 7.9696 11.9756L11.9414 8.00378C12.1931 7.75211 12.1931 7.344 11.9414 7.09229C11.8155 6.96643 11.6506 6.90348 11.4856 6.90348C11.3207 6.90348 11.1557 6.96643 11.0299 7.09229L7.05815 11.0641C6.80635 11.3157 6.80635 11.7238 7.0581 11.9756Z" fill="black"/>
<path d="M14.0463 13.1909L15.5871 11.6501C15.8388 11.3984 15.8388 10.9903 15.5871 10.7386C15.4613 10.6127 15.2963 10.5498 15.1314 10.5498C14.9665 10.5498 14.8015 10.6127 14.6757 10.7386L13.1349 12.2794C12.8831 12.531 12.8831 12.9391 13.1349 13.1909C13.3864 13.4426 13.7946 13.4426 14.0463 13.1909Z" fill="black"/>
<path d="M6.45041 17.1408L11.3118 12.2795C11.5635 12.0278 11.5635 11.6197 11.3118 11.368C11.1859 11.2421 11.021 11.1792 10.856 11.1792C10.6911 11.1792 10.5261 11.2421 10.4003 11.368L5.53896 16.2293C5.28725 16.481 5.28725 16.8891 5.53896 17.1408C5.79063 17.3925 6.19874 17.3925 6.45041 17.1408Z" fill="black"/>
<path d="M0.618482 22.0612C0.87015 22.3129 1.27827 22.3129 1.52998 22.0612L4.62738 18.9638C4.87909 18.7121 4.87909 18.304 4.62738 18.0523C4.50152 17.9265 4.33657 17.8635 4.17165 17.8635C4.00674 17.8635 3.84174 17.9265 3.71593 18.0523L0.618482 21.1498C0.366728 21.4015 0.366728 21.8096 0.618482 22.0612Z" fill="black"/>
<path d="M11.7675 13.9136C11.6026 13.9136 11.4376 13.9765 11.3118 14.1024L5.84278 19.5714C5.59107 19.8231 5.59107 20.2312 5.84278 20.4829C6.09445 20.7345 6.50257 20.7345 6.75428 20.4829L12.2233 15.0139C12.475 14.7622 12.475 14.3541 12.2233 14.1024C12.0974 13.9765 11.9325 13.9136 11.7675 13.9136Z" fill="black"/>
<path d="M6.31641 6.26562H6.96094V6.91016C6.96094 7.26611 7.24952 7.55469 7.60547 7.55469C7.96142 7.55469 8.25 7.26611 8.25 6.91016V6.26562H8.89453C9.25048 6.26562 9.53906 5.97705 9.53906 5.62109C9.53906 5.26514 9.25048 4.97656 8.89453 4.97656H8.25V4.33203C8.25 3.97608 7.96142 3.6875 7.60547 3.6875C7.24952 3.6875 6.96094 3.97608 6.96094 4.33203V4.97656H6.31641C5.96045 4.97656 5.67188 5.26514 5.67188 5.62109C5.67188 5.97705 5.96045 6.26562 6.31641 6.26562Z" fill="black"/>
<path d="M21.7852 19.6719H21.1406V19.0273C21.1406 18.6714 20.852 18.3828 20.4961 18.3828C20.1401 18.3828 19.8516 18.6714 19.8516 19.0273V19.6719H19.207C18.8511 19.6719 18.5625 19.9605 18.5625 20.3164C18.5625 20.6724 18.8511 20.9609 19.207 20.9609H19.8516V21.6055C19.8516 21.9614 20.1401 22.25 20.4961 22.25C20.852 22.25 21.1406 21.9614 21.1406 21.6055V20.9609H21.7852C22.1411 20.9609 22.4297 20.6724 22.4297 20.3164C22.4297 19.9605 22.1411 19.6719 21.7852 19.6719Z" fill="black"/>
<path d="M16.1992 17.0078H15.5547V16.3633C15.5547 16.0073 15.2661 15.7188 14.9102 15.7188C14.5542 15.7188 14.2656 16.0073 14.2656 16.3633V17.0078H13.6211C13.2651 17.0078 12.9766 17.2964 12.9766 17.6523C12.9766 18.0083 13.2651 18.2969 13.6211 18.2969H14.2656V18.9414C14.2656 19.2974 14.5542 19.5859 14.9102 19.5859C15.2661 19.5859 15.5547 19.2974 15.5547 18.9414V18.2969H16.1992C16.5552 18.2969 16.8438 18.0083 16.8438 17.6523C16.8438 17.2964 16.5552 17.0078 16.1992 17.0078Z" fill="black"/>
<path d="M10.8281 20.2305C10.4722 20.2305 10.1836 20.519 10.1836 20.875C10.1836 21.231 10.4722 21.5195 10.8281 21.5195C11.1841 21.5195 11.4727 21.231 11.4727 20.875C11.4727 20.519 11.1841 20.2305 10.8281 20.2305Z" fill="black"/>
<path d="M19.4219 13.7852C19.0659 13.7852 18.7773 14.0737 18.7773 14.4297C18.7773 14.7857 19.0659 15.0742 19.4219 15.0742C19.7778 15.0742 20.0664 14.7857 20.0664 14.4297C20.0664 14.0737 19.7778 13.7852 19.4219 13.7852Z" fill="black"/>
<path d="M4.38281 0.894531C4.02685 0.894531 3.73828 1.1831 3.73828 1.53906C3.73828 1.89503 4.02685 2.18359 4.38281 2.18359C4.73878 2.18359 5.02734 1.89503 5.02734 1.53906C5.02734 1.1831 4.73878 0.894531 4.38281 0.894531Z" fill="black"/>
<path d="M1.80469 9.48828C1.44872 9.48828 1.16016 9.77685 1.16016 10.1328C1.16016 10.4888 1.44872 10.7773 1.80469 10.7773C2.16065 10.7773 2.44922 10.4888 2.44922 10.1328C2.44922 9.77685 2.16065 9.48828 1.80469 9.48828Z" fill="black"/>
</g>
<defs>
<clipPath id="clip0_249_5622">
<rect width="22" height="22" fill="white" transform="matrix(-1 0 0 -1 22.4297 22.25)"/>
</clipPath>
</defs>
</svg>
