<svg width="24" height="25" viewBox="0 0 24 25" fill="none" xmlns="http://www.w3.org/2000/svg">
<g clip-path="url(#clip0_250_6181)">
<path d="M0.0747242 13.3014L1.26432 7.47258C1.74396 5.26315 3.69505 3.68418 5.95592 3.67578H17.6439C19.9046 3.68403 21.8556 5.26289 22.3351 7.47218L23.8799 14.7002C23.8805 14.7098 23.8805 14.7194 23.8799 14.729C24.2365 16.4612 23.781 18.2614 22.6433 19.6154C21.5056 20.9695 19.8109 21.7285 18.0431 21.6758H2.19992C1.57906 21.6758 0.987087 21.4135 0.57004 20.9536C0.152994 20.4936 -0.050293 19.8789 0.0103245 19.261C0.118105 18.3321 0.793196 17.5687 1.70193 17.3482C0.407875 16.4438 -0.230169 14.8607 0.0751247 13.3118C0.0755253 13.3082 0.0743256 13.305 0.0747242 13.3014ZM21.5527 7.63898C21.1532 5.79817 19.5276 4.48265 17.6439 4.47578H5.95592C4.07333 4.48236 2.44819 5.79631 2.04753 7.63578L1.34072 11.0962C2.07082 10.4395 3.01797 10.0761 3.99993 10.0758H18.1999C19.7891 10.0708 21.3094 10.7238 22.3999 11.8798C22.4279 11.909 22.4511 11.941 22.4799 11.9706L21.5527 7.63898ZM3.99993 17.2758H18.1999C18.5956 17.2752 18.9726 17.1076 19.2379 16.8141C19.5033 16.5206 19.6323 16.1287 19.5931 15.735C19.4931 15.002 18.8595 14.4605 18.1199 14.4758H3.99993C3.77901 14.4758 3.59992 14.2967 3.59992 14.0758C3.59992 13.8549 3.77901 13.6758 3.99993 13.6758H18.1199C19.2701 13.6636 20.2465 14.5161 20.3895 15.6574C20.4505 16.2757 20.2474 16.891 19.8304 17.3516C19.4134 17.8121 18.8212 18.0752 18.1999 18.0758H2.27712C1.5374 18.0606 0.904324 18.6036 0.806725 19.337C0.766237 19.7315 0.896214 20.1244 1.16393 20.417C1.42948 20.7087 1.80548 20.8752 2.19992 20.8758H18.0431C20.7516 20.9207 23.0182 18.8313 23.1935 16.1282C23.2612 14.7604 22.7654 13.4247 21.8219 12.4323C20.8783 11.4398 19.5693 10.8773 18.1999 10.8758H3.99993C2.23261 10.8758 0.799925 12.3085 0.799925 14.0758C0.799925 15.8431 2.23261 17.2758 3.99993 17.2758Z" fill="black"/>
<path d="M20.4624 8.27988C20.4349 8.28577 20.4069 8.28872 20.3788 8.28868C20.1901 8.28847 20.0273 8.15643 19.988 7.97188C19.7482 6.86827 18.7734 6.07977 17.644 6.07588H14.4C14.1791 6.07588 14 5.89679 14 5.67588C14 5.45496 14.1791 5.27588 14.4 5.27588H17.644C19.1506 5.2813 20.4509 6.33325 20.7708 7.80548C20.7929 7.90929 20.7727 8.0176 20.7149 8.10657C20.6571 8.19555 20.5662 8.25789 20.4624 8.27988Z" fill="black"/>
<path d="M12.8 6.07588C12.579 6.07588 12.4 5.89679 12.4 5.67588C12.4 5.45496 12.579 5.27588 12.8 5.27588C13.0209 5.27588 13.2 5.45496 13.2 5.67588C13.2 5.89679 13.0209 6.07588 12.8 6.07588Z" fill="black"/>
</g>
<defs>
<clipPath id="clip0_250_6181">
<rect width="24" height="24" fill="white" transform="matrix(-1 0 0 1 24 0.675781)"/>
</clipPath>
</defs>
</svg>
