<svg width="33" height="33" viewBox="0 0 33 33" fill="none" xmlns="http://www.w3.org/2000/svg">
<path d="M16.0546 30.737C14.2435 30.7404 12.4496 30.3857 10.776 29.6936C9.10236 29.0015 7.58205 27.9854 6.30233 26.7039C0.924125 21.3257 0.924125 12.5753 6.30233 7.19712C7.58011 5.91215 9.10011 4.89338 10.7743 4.19977C12.4484 3.50616 14.2436 3.15149 16.0557 3.1563C19.7401 3.1563 23.2039 4.59078 25.808 7.19712C28.4132 9.80237 29.8488 13.2661 29.8488 16.9505C29.8488 20.6349 28.4143 24.0986 25.808 26.7039C24.528 27.9854 23.0075 29.0015 21.3337 29.6936C19.6599 30.3857 17.8659 30.7403 16.0546 30.737ZM16.0557 5.36319C14.5334 5.35887 13.0254 5.65665 11.6191 6.23928C10.2127 6.82191 8.93586 7.67781 7.86261 8.75737C5.67447 10.9456 4.4695 13.8553 4.4695 16.9505C4.4695 20.0457 5.67447 22.9544 7.86261 25.1436C12.3801 29.6611 19.7313 29.6622 24.2477 25.1436C26.4359 22.9555 27.6419 20.0457 27.6419 16.9505C27.6419 13.8553 26.4369 10.9466 24.2477 8.75737C23.1744 7.67812 21.8978 6.82245 20.4917 6.23984C19.0855 5.65722 17.5778 5.35926 16.0557 5.36319Z" fill="black"/>
<path d="M11.3735 22.7345C11.155 22.735 10.9413 22.6705 10.7596 22.5494C10.5778 22.4282 10.4361 22.2558 10.3526 22.054C10.269 21.8522 10.2473 21.63 10.2901 21.4159C10.333 21.2017 10.4385 21.005 10.5933 20.8509L19.9561 11.4882C20.0585 11.3857 20.1801 11.3045 20.314 11.249C20.4478 11.1935 20.5913 11.165 20.7362 11.165C20.8811 11.165 21.0246 11.1935 21.1584 11.249C21.2923 11.3045 21.4139 11.3857 21.5163 11.4882C21.6188 11.5906 21.7001 11.7122 21.7555 11.8461C21.811 11.98 21.8395 12.1234 21.8395 12.2683C21.8395 12.4132 21.811 12.5567 21.7555 12.6905C21.7001 12.8244 21.6188 12.946 21.5163 13.0484L12.1536 22.4112C12.0514 22.514 11.9298 22.5955 11.7959 22.651C11.662 22.7065 11.5184 22.7349 11.3735 22.7345Z" fill="black"/>
<path d="M20.7368 22.7345C20.5919 22.7347 20.4484 22.7062 20.3145 22.6507C20.1806 22.5952 20.059 22.5138 19.9567 22.4112L10.5939 13.0484C10.4914 12.946 10.4102 12.8244 10.3548 12.6905C10.2993 12.5567 10.2708 12.4132 10.2708 12.2683C10.2708 12.1234 10.2993 11.98 10.3548 11.8461C10.4102 11.7122 10.4914 11.5906 10.5939 11.4882C10.6964 11.3857 10.818 11.3045 10.9518 11.249C11.0857 11.1935 11.2292 11.165 11.3741 11.165C11.5189 11.165 11.6624 11.1935 11.7963 11.249C11.9301 11.3045 12.0518 11.3857 12.1542 11.4882L21.5169 20.8509C21.6718 21.005 21.7773 21.2017 21.8201 21.4159C21.863 21.63 21.8413 21.8522 21.7577 22.054C21.6741 22.2558 21.5324 22.4282 21.3507 22.5494C21.1689 22.6705 20.9553 22.735 20.7368 22.7345Z" fill="black"/>
</svg>
