<svg width="23" height="24" viewBox="0 0 23 24" fill="none" xmlns="http://www.w3.org/2000/svg">
<g clip-path="url(#clip0_249_5619)">
<path d="M14.0186 21.626V22.5403C14.0186 22.8739 14.1477 23.1757 14.3572 23.3947C14.568 23.6137 14.8566 23.75 15.1758 23.75H16.4839C16.803 23.75 17.0917 23.6138 17.3012 23.3947C17.5107 23.1757 17.641 22.8739 17.641 22.5403V21.626C18.1198 21.626 18.5083 21.5025 18.8542 21.1395C19.1416 20.8403 19.3195 20.4264 19.3195 19.9706C19.3195 15.5494 19.3195 11.1294 19.3195 6.70821H19.9358V9.90571C19.9358 10.0916 20.0089 10.2597 20.1246 10.3807C20.2415 10.5029 20.4023 10.5781 20.5789 10.5781H21.6191C21.7957 10.5781 21.9577 10.5029 22.0734 10.3807C22.1903 10.2597 22.2622 10.0916 22.2622 9.90571V8.90229C22.2622 8.71636 22.1173 8.56483 21.9394 8.56483C21.7616 8.56483 21.6179 8.71636 21.6179 8.90229V9.90445H20.5801V6.70826H21.6179V7.37553C21.6179 7.56146 21.7616 7.71298 21.9394 7.71298C22.1173 7.71298 22.2622 7.56146 22.2622 7.37553V6.37211C22.2622 6.18492 22.1173 6.03465 21.9394 6.03465H19.2865C19.222 5.71373 19.0685 5.42596 18.8541 5.20185C18.5679 4.90258 18.1721 4.71669 17.736 4.71669H15.5557C15.4717 3.66615 15.0295 2.72131 14.3572 2.01841C13.6081 1.23516 12.5728 0.75 11.4303 0.75C11.0113 0.75 10.6045 0.816215 10.2184 0.93975C9.81884 1.0671 9.44738 1.25429 9.1136 1.49112C8.96622 1.59552 8.92724 1.80441 9.0259 1.95844C9.1258 2.11253 9.32556 2.15327 9.4729 2.04887C9.75912 1.84641 10.0721 1.68846 10.4047 1.5815C10.7263 1.47962 11.071 1.4236 11.4303 1.4236C12.3949 1.4236 13.2682 1.83239 13.9016 2.49454C14.5338 3.15543 14.9248 4.06847 14.9248 5.07822C14.9248 6.0524 14.5618 7.02397 13.9662 8.03125C13.3547 9.06522 12.4985 10.1374 11.5362 11.2847C11.4388 11.3892 11.4205 11.3955 11.3243 11.2873C10.362 10.14 9.50453 9.06648 8.89308 8.03125C8.29745 7.02397 7.93449 6.0524 7.93449 5.07822C7.93449 4.70259 7.98687 4.34222 8.08553 4.00733C8.18784 3.65972 8.33887 3.33117 8.53253 3.0332C8.63239 2.87912 8.59342 2.66902 8.44604 2.56588C8.29865 2.46143 8.09769 2.50222 7.99903 2.6563C7.7725 3.00521 7.59345 3.39487 7.47163 3.81255C7.38638 4.10288 7.32915 4.40592 7.30479 4.71665H5.1233C4.68726 4.71665 4.29139 4.90258 4.00513 5.2018C3.79076 5.42592 3.63732 5.71373 3.57273 6.03461H0.919888C0.742039 6.03461 0.597105 6.18487 0.597105 6.37206V9.90571C0.597105 10.0916 0.670197 10.2597 0.785912 10.3807C0.902828 10.5029 1.06362 10.5781 1.24022 10.5781H2.28041C2.45701 10.5781 2.619 10.5029 2.73472 10.3807C2.85163 10.2597 2.92348 10.0916 2.92348 9.90571V6.70821H3.53982V12.4079C3.53982 12.5938 3.6848 12.7454 3.8626 12.7454C4.04045 12.7454 4.18418 12.5938 4.18418 12.4079V6.37202C4.18418 6.10204 4.29014 5.85631 4.46068 5.67802C4.63118 5.50098 4.86506 5.3902 5.1233 5.3902H7.29997C7.31458 5.60543 7.34384 5.82065 7.38647 6.03456H5.7543C5.4912 6.03456 5.25372 6.1466 5.08077 6.32746C4.90777 6.50701 4.80061 6.75659 4.80061 7.03035V13.7105C4.80061 13.9856 4.90782 14.2339 5.08077 14.4147C5.25372 14.5956 5.49125 14.7076 5.7543 14.7076H17.1051C17.3682 14.7076 17.6057 14.5956 17.7787 14.4147C17.9517 14.2339 18.0588 13.9856 18.0588 13.7105C18.0588 11.4847 18.0588 9.25748 18.0588 7.03035C18.0588 6.75655 17.9517 6.50701 17.7787 6.32746C17.6057 6.14664 17.3682 6.03456 17.1051 6.03456H15.473C15.5156 5.82065 15.5448 5.60543 15.5595 5.3902H17.7361C17.9943 5.3902 18.2282 5.50098 18.3987 5.67802C18.5692 5.85627 18.6752 6.10204 18.6752 6.37202V16.3401H17.0406C16.7203 16.3401 16.4292 16.4776 16.2184 16.6979C16.0077 16.9169 15.8774 17.2213 15.8774 17.5562V17.9956C15.8774 18.3304 16.0077 18.6348 16.2184 18.8551C16.4292 19.0754 16.7203 19.2117 17.0406 19.2117H18.6751V19.9706C18.6751 20.2406 18.5692 20.4851 18.3986 20.6633C18.2281 20.8416 17.9943 20.9524 17.736 20.9524H5.12339C4.86515 20.9524 4.63127 20.8416 4.46077 20.6633C4.29023 20.485 4.18427 20.2406 4.18427 19.9706V19.2117H5.81884C6.13917 19.2117 6.43029 19.0754 6.641 18.8551C6.85172 18.6348 6.98205 18.3304 6.98205 17.9956V17.5562C6.98205 17.2213 6.85172 16.917 6.641 16.6979C6.43029 16.4776 6.13917 16.3401 5.81884 16.3401H4.18427V13.9347C4.18427 13.7475 4.04053 13.5973 3.86269 13.5973C3.68488 13.5973 3.53991 13.7475 3.53991 13.9347V19.9706C3.53991 20.4265 3.71775 20.8403 4.00521 21.1395C4.35111 21.5025 4.73968 21.626 5.21835 21.626V22.5403C5.21835 22.8739 5.34868 23.1757 5.55819 23.3947C5.76766 23.6137 6.05758 23.75 6.37546 23.75H7.6836C8.00273 23.75 8.29259 23.6138 8.50211 23.3947C8.71163 23.1757 8.84195 22.8739 8.84195 22.5403V21.626H14.0186ZM11.4303 2.76322C10.8189 2.76322 10.2646 3.023 9.86392 3.44194C9.46319 3.86088 9.21595 4.43903 9.21595 5.07822C9.21595 5.71746 9.46319 6.29561 9.86392 6.71455C10.2646 7.13349 10.8189 7.39327 11.4303 7.39327C12.0405 7.39327 12.5948 7.13349 12.9955 6.71455C13.3962 6.29561 13.6434 5.71751 13.6434 5.07822C13.6434 4.43903 13.3962 3.86088 12.9955 3.44194C12.5948 3.023 12.0405 2.76322 11.4303 2.76322ZM10.3195 3.91821C10.6045 3.6215 10.9967 3.43682 11.4303 3.43682C11.8627 3.43682 12.2562 3.62145 12.54 3.91821C12.8238 4.21487 12.9992 4.62492 12.9992 5.07822C12.9992 5.53157 12.8238 5.94162 12.54 6.23829C12.2562 6.53499 11.8627 6.71836 11.4303 6.71836C10.9967 6.71836 10.6045 6.53504 10.3195 6.23829C10.0357 5.94162 9.86031 5.53157 9.86031 5.07822C9.86027 4.62492 10.0357 4.21491 10.3195 3.91821ZM7.56552 6.70821C7.64712 6.96036 7.74702 7.21246 7.86273 7.46461H5.44617V7.03039C5.44617 6.94253 5.48025 6.8623 5.53632 6.80372C5.59235 6.74514 5.66909 6.70821 5.75434 6.70821H7.56552ZM8.20618 8.13951C8.25126 8.221 8.29874 8.30249 8.34626 8.38398C8.98452 9.46255 9.86392 10.564 10.8481 11.7368C10.9992 11.9125 11.1928 12.0386 11.4254 12.0399C11.6459 12.0399 11.8798 11.9062 12.0186 11.7279C13.0004 10.559 13.8761 9.46004 14.5132 8.38398C14.5607 8.30249 14.6082 8.221 14.6533 8.13951H17.4133V12.6028H5.44617V8.13951H8.20618ZM14.9967 7.46461C15.1124 7.21246 15.2123 6.96036 15.2951 6.70821H17.1051C17.1903 6.70821 17.2671 6.74514 17.3231 6.80372C17.3792 6.8623 17.4133 6.94253 17.4133 7.03039V7.46461H14.9967ZM2.27929 6.70821V9.9044H1.24151V6.70821H2.27929ZM12.9419 18.7723C13.1209 18.7723 13.2646 18.6208 13.2646 18.4348C13.2646 18.2489 13.1209 18.0987 12.9419 18.0987H9.78963C9.61178 18.0987 9.46684 18.249 9.46684 18.4348C9.46684 18.6208 9.61178 18.7723 9.78963 18.7723H12.9419ZM12.9419 17.4543C13.1209 17.4543 13.2646 17.3028 13.2646 17.1169C13.2646 16.931 13.1209 16.7794 12.9419 16.7794H9.78963C9.61178 16.7794 9.46684 16.931 9.46684 17.1169C9.46684 17.3028 9.61178 17.4543 9.78963 17.4543H12.9419ZM5.44617 13.2764H17.4132V13.7106C17.4132 13.7997 17.3792 13.88 17.3231 13.9385C17.267 13.9971 17.1903 14.0328 17.1051 14.0328H5.75426C5.66901 14.0328 5.59227 13.9971 5.53623 13.9385C5.4802 13.8799 5.44609 13.7997 5.44609 13.7106V13.2764H5.44617ZM12.0953 19.5262C11.9175 19.5262 11.7738 19.6777 11.7738 19.8636C11.7738 20.0496 11.9175 20.2011 12.0953 20.2011H12.7117C13.3487 20.2011 13.9297 19.9273 14.3487 19.4893C14.7689 19.05 15.0308 18.4438 15.0308 17.7766C15.0308 16.4433 13.9869 15.352 12.7117 15.352H10.0211C9.3828 15.352 8.80302 15.6245 8.38279 16.0639C7.96259 16.5032 7.7019 17.1093 7.7019 17.7766C7.7019 19.1098 8.74574 20.2011 10.021 20.2011H10.6361C10.814 20.2011 10.9576 20.0496 10.9576 19.8636C10.9576 19.6777 10.8139 19.5262 10.6361 19.5262H10.021C9.10019 19.5262 8.34622 18.7392 8.34622 17.7765C8.34622 17.2952 8.53502 16.8571 8.83834 16.54C9.14161 16.223 9.56065 16.0256 10.021 16.0256H12.7116C13.6324 16.0256 14.3852 16.8138 14.3852 17.7765C14.3852 18.2566 14.1976 18.6946 13.8931 19.0117C13.5898 19.3301 13.1708 19.5262 12.7116 19.5262H12.0953ZM4.18427 18.538V17.0137H5.81884C5.96137 17.0137 6.09169 17.0749 6.18549 17.1742C6.27929 17.2723 6.33773 17.4073 6.33773 17.5562V17.9956C6.33773 18.1445 6.27929 18.2795 6.18549 18.3788C6.09169 18.4769 5.96137 18.538 5.81884 18.538H4.18427ZM18.6751 17.0137V18.538H17.0406C16.8981 18.538 16.769 18.4769 16.6739 18.3788C16.5801 18.2795 16.5217 18.1445 16.5217 17.9956V17.5562C16.5217 17.4073 16.5801 17.2723 16.6739 17.1742C16.769 17.0749 16.8981 17.0137 17.0406 17.0137H18.6751ZM5.86271 22.5403V21.626H8.19643V22.5403C8.19643 22.688 8.1392 22.8217 8.0466 22.9185C7.9528 23.0165 7.82492 23.0764 7.68364 23.0764H6.3755C6.23542 23.0764 6.1063 23.0165 6.01375 22.9185C5.92119 22.8217 5.86271 22.688 5.86271 22.5403ZM14.663 22.5403V21.626H16.9967V22.5403C16.9967 22.688 16.9394 22.8217 16.8457 22.9185C16.7531 23.0165 16.624 23.0764 16.4839 23.0764H15.1758C15.0344 23.0764 14.9066 23.0165 14.814 22.9185C14.7202 22.8217 14.663 22.688 14.663 22.5403Z" fill="black"/>
</g>
<defs>
<clipPath id="clip0_249_5619">
<rect width="22" height="23" fill="white" transform="matrix(-1 0 0 1 22.4297 0.75)"/>
</clipPath>
</defs>
</svg>
