<svg width="26" height="27" viewBox="0 0 26 27" fill="none" xmlns="http://www.w3.org/2000/svg">
<g clip-path="url(#clip0_250_6192)">
<path d="M0.609375 1.26147H25.3906C25.5522 1.26147 25.7072 1.32568 25.8215 1.43996C25.9358 1.55424 26 1.70923 26 1.87085V25.8269C26 25.9885 25.9358 26.1435 25.8215 26.2578C25.7072 26.3721 25.5522 26.4363 25.3906 26.4363H0.609375C0.44776 26.4363 0.292761 26.3721 0.178482 26.2578C0.0642014 26.1435 0 25.9885 0 25.8269V1.87085C0 1.70923 0.0642014 1.55424 0.178482 1.43996C0.292761 1.32568 0.44776 1.26147 0.609375 1.26147ZM1.21875 25.2175H24.7812V2.48022H1.21875V25.2175ZM13 21.1532C8.97239 21.1532 5.69568 17.8765 5.69568 13.8489C5.69568 9.82126 8.97239 6.54455 13 6.54455C17.0276 6.54455 20.3043 9.82131 20.3043 13.8489C20.3043 17.8764 17.0276 21.1532 13 21.1532ZM13.6094 7.79372V8.9524C13.6094 9.11401 13.5452 9.26901 13.4309 9.38329C13.3166 9.49757 13.1616 9.56177 13 9.56177C12.8384 9.56177 12.6834 9.49757 12.5691 9.38329C12.4548 9.26901 12.3906 9.11401 12.3906 8.9524V7.79372C10.8897 7.94485 9.49845 8.64802 8.48663 9.76684C7.47482 10.8857 6.91458 12.3404 6.91458 13.8489C6.91458 15.3574 7.47482 16.8121 8.48663 17.9309C9.49845 19.0497 10.8897 19.7529 12.3906 19.904V18.7454C12.3906 18.5837 12.4548 18.4287 12.5691 18.3145C12.6834 18.2002 12.8384 18.136 13 18.136C13.1616 18.136 13.3166 18.2002 13.4309 18.3145C13.5452 18.4287 13.6094 18.5837 13.6094 18.7454V19.904C15.1103 19.7529 16.5016 19.0497 17.5134 17.9309C18.5252 16.8121 19.0854 15.3574 19.0854 13.8489C19.0854 12.3404 18.5252 10.8857 17.5134 9.76684C16.5016 8.64802 15.1103 7.94485 13.6094 7.79372ZM14.5229 13.8489C14.5229 13.5208 14.6202 13.2001 14.8024 12.9273C14.9847 12.6546 15.2438 12.442 15.5468 12.3164C15.8499 12.1909 16.1835 12.158 16.5052 12.222C16.827 12.286 17.1225 12.444 17.3545 12.676C17.5865 12.908 17.7445 13.2035 17.8085 13.5253C17.8724 13.8471 17.8396 14.1806 17.714 14.4837C17.5885 14.7868 17.3759 15.0458 17.1031 15.2281C16.8303 15.4103 16.5096 15.5076 16.1815 15.5076C15.7418 15.5071 15.3202 15.3322 15.0092 15.0212C14.6983 14.7103 14.5234 14.2886 14.5229 13.8489ZM16.6215 13.8489C16.6215 13.7619 16.5957 13.6768 16.5474 13.6044C16.499 13.5321 16.4303 13.4757 16.3499 13.4424C16.2695 13.4091 16.1811 13.4004 16.0957 13.4174C16.0104 13.4343 15.932 13.4762 15.8704 13.5378C15.8089 13.5993 15.767 13.6777 15.75 13.763C15.7331 13.8484 15.7418 13.9369 15.7751 14.0172C15.8084 14.0976 15.8648 14.1664 15.9371 14.2147C16.0095 14.263 16.0945 14.2888 16.1815 14.2888C16.2982 14.2887 16.41 14.2423 16.4925 14.1598C16.575 14.0774 16.6214 13.9655 16.6215 13.8489ZM9.81845 15.5076C9.49039 15.5076 9.16969 15.4103 8.89691 15.2281C8.62412 15.0458 8.41151 14.7868 8.28596 14.4837C8.16041 14.1806 8.12755 13.8471 8.19155 13.5253C8.25555 13.2035 8.41352 12.908 8.64549 12.676C8.87747 12.444 9.17302 12.286 9.49478 12.222C9.81655 12.158 10.1501 12.1909 10.4532 12.3164C10.7562 12.442 11.0153 12.6546 11.1976 12.9273C11.3798 13.2001 11.4771 13.5208 11.4771 13.8489C11.4766 14.2886 11.3017 14.7103 10.9908 15.0212C10.6798 15.3322 10.2582 15.5071 9.81845 15.5076ZM9.81845 13.4089C9.73143 13.4089 9.64636 13.4347 9.57401 13.483C9.50165 13.5314 9.44525 13.6001 9.41194 13.6805C9.37863 13.7609 9.36991 13.8493 9.38688 13.9347C9.40385 14.02 9.44575 14.0984 9.50728 14.16C9.56881 14.2215 9.6472 14.2634 9.73255 14.2804C9.8179 14.2974 9.90636 14.2887 9.98676 14.2554C10.0672 14.2221 10.1359 14.1657 10.1842 14.0933C10.2326 14.021 10.2584 13.9359 10.2584 13.8489C10.2582 13.7322 10.2118 13.6204 10.1294 13.5379C10.0469 13.4555 9.93509 13.4091 9.81845 13.4089ZM23.5234 13.8569V13.8409C23.5234 13.6793 23.4592 13.5243 23.3449 13.41C23.2306 13.2957 23.0756 13.2315 22.914 13.2315C22.7524 13.2315 22.5974 13.2957 22.4831 13.41C22.3689 13.5243 22.3046 13.6793 22.3046 13.8409V13.8569C22.3046 14.0185 22.3689 14.1735 22.4831 14.2877C22.5974 14.402 22.7524 14.4662 22.914 14.4662C23.0756 14.4662 23.2306 14.402 23.3449 14.2877C23.4592 14.1735 23.5234 14.0185 23.5234 13.8569ZM4.06661 13.8569V13.8409C4.06661 13.6793 4.00241 13.5243 3.88813 13.41C3.77385 13.2957 3.61885 13.2315 3.45724 13.2315C3.29562 13.2315 3.14062 13.2957 3.02635 13.41C2.91207 13.5243 2.84786 13.6793 2.84786 13.8409V13.8569C2.84786 14.0185 2.91207 14.1735 3.02635 14.2877C3.14062 14.402 3.29562 14.4662 3.45724 14.4662C3.61885 14.4662 3.77385 14.402 3.88813 14.2877C4.00241 14.1735 4.06661 14.0185 4.06661 13.8569Z" fill="black"/>
</g>
<defs>
<clipPath id="clip0_250_6192">
<rect width="26" height="26" fill="white" transform="matrix(-1 0 0 1 26 0.848877)"/>
</clipPath>
</defs>
</svg>
