<svg width="28" height="55" viewBox="0 0 28 55" fill="none" xmlns="http://www.w3.org/2000/svg">
<path d="M13.8539 34.2828C15.8774 34.2828 17.8556 33.4194 19.5381 31.8018C21.2206 30.1843 22.532 27.8851 23.3064 25.1952C24.0808 22.5052 24.2834 19.5452 23.8886 16.6896C23.4938 13.834 22.5194 11.2109 21.0885 9.15209C19.6576 7.09329 17.8346 5.69123 15.8499 5.1232C13.8652 4.55518 11.808 4.84671 9.93852 5.96093C8.06899 7.07514 6.47108 8.962 5.34685 11.3829C4.22261 13.8038 3.62256 16.65 3.62256 19.5616C3.62505 23.4648 4.70379 27.2071 6.622 29.9671C8.5402 32.7271 11.1411 34.2792 13.8539 34.2828ZM13.8539 6.76217C15.6133 6.76217 17.3331 7.51284 18.796 8.91926C20.2589 10.3257 21.3991 12.3247 22.0724 14.6635C22.7457 17.0022 22.9218 19.5758 22.5786 22.0586C22.2353 24.5415 21.3881 26.8221 20.144 28.6121C18.9 30.4022 17.3149 31.6212 15.5893 32.1151C13.8637 32.6089 12.0751 32.3554 10.4497 31.3867C8.8242 30.4179 7.43489 28.7774 6.45743 26.6726C5.47996 24.5677 4.95824 22.0931 4.95824 19.5616C4.95971 16.1676 5.89739 12.9133 7.56533 10.5134C9.23327 8.11347 11.4951 6.76428 13.8539 6.76217Z" fill="black"/>
<path d="M12.1171 49.7925C12.306 50.2086 12.564 50.5504 12.8677 50.7869C13.1715 51.0235 13.5115 51.1474 13.8569 51.1474C14.2023 51.1474 14.5422 51.0235 14.846 50.7869C15.1497 50.5504 15.4077 50.2086 15.5966 49.7925C15.6634 49.6291 22.9495 33.5049 24.0982 31.4678C26.2218 27.6865 27.2536 22.8751 26.9801 18.0296C26.7066 13.184 25.1487 8.6753 22.6289 5.43657C21.2458 3.64489 19.613 2.29818 17.8395 1.48625C16.066 0.674324 14.1926 0.415852 12.3442 0.728076C6.61412 1.65056 1.30479 9.40515 0.750483 17.669C0.405031 22.5765 1.40688 27.4838 3.54206 31.3429C4.91781 33.8316 12.0503 49.6291 12.1171 49.7925ZM2.07949 17.8516C2.57369 10.5583 7.43557 3.45708 12.4911 2.6403C12.9482 2.5718 13.4073 2.53652 13.8669 2.5346C16.7748 2.51925 19.5823 4.06447 21.7407 6.86833C22.9822 8.46557 23.9755 10.4218 24.6556 12.6091C25.3358 14.7965 25.6874 17.1658 25.6876 19.562C25.6993 23.4583 24.7691 27.2391 23.0564 30.257C21.8676 32.3711 14.7751 48.0724 14.4746 48.7451C14.4049 48.8876 14.3124 49.0039 14.2048 49.0842C14.0973 49.1644 13.978 49.2063 13.8569 49.2063C13.7357 49.2063 13.6164 49.1644 13.5089 49.0842C13.4013 49.0039 13.3088 48.8876 13.2391 48.7451C12.9453 48.0917 6.00639 32.7074 4.59057 30.1513C2.66988 26.6802 1.76869 22.2659 2.07949 17.8516Z" fill="black"/>
<path d="M8.31748 18.5665V20.3323V24.7609C8.31854 25.1845 8.4166 25.5957 8.59649 25.931C8.77638 26.2662 9.02805 26.5068 9.31257 26.6155V26.7212C9.31257 27.408 9.50219 28.0667 9.83972 28.5524C10.1773 29.038 10.6351 29.3109 11.1124 29.3109C11.5897 29.3109 12.0475 29.038 12.3851 28.5524C12.7226 28.0667 12.9122 27.408 12.9122 26.7212V26.6828H14.7621V26.7212C14.7621 27.4093 14.9521 28.0692 15.2903 28.5558C15.6284 29.0423 16.0871 29.3157 16.5653 29.3157C17.0435 29.3157 17.5022 29.0423 17.8403 28.5558C18.1785 28.0692 18.3685 27.4093 18.3685 26.7212V26.6251C18.6596 26.5248 18.9188 26.2863 19.1042 25.9481C19.2895 25.6099 19.3903 25.1917 19.3903 24.7609V20.3468L19.3923 20.3325L19.3903 20.3183V18.5665H19.5638C19.839 18.5664 20.1108 18.4796 20.3601 18.3121C20.6095 18.1447 20.8303 17.9007 21.0071 17.5973C21.1839 17.2939 21.3124 16.9385 21.3835 16.556C21.4545 16.1736 21.4666 15.7733 21.4186 15.3834C21.3284 14.7443 21.0861 14.1704 20.7335 13.7606C20.3809 13.3507 19.9401 13.1305 19.4868 13.1379H19.3903V12.6918C19.3899 11.9275 19.1786 11.1946 18.803 10.6541C18.4274 10.1136 17.918 9.80968 17.3868 9.80908H10.321C9.79011 9.81131 9.28141 10.1157 8.90601 10.6559C8.53061 11.196 8.31903 11.928 8.31748 12.6918V13.1379H8.22092C7.76777 13.1305 7.32699 13.3506 6.97442 13.7602C6.62185 14.1699 6.37953 14.7435 6.28914 15.3825C6.24113 15.7724 6.25308 16.1728 6.32414 16.5553C6.39519 16.9379 6.52364 17.2935 6.70044 17.5969C6.87724 17.9004 7.0981 18.1445 7.34749 18.312C7.59688 18.4795 7.86874 18.5664 8.14396 18.5665L8.31748 18.5665ZM18.0546 19.3716H9.65316V15.0597H18.0546V19.3716ZM18.0546 24.7609H9.65316V21.2935H18.0546V24.7609ZM20.1025 15.7109C20.1174 15.8248 20.1146 15.942 20.0944 16.0542C20.0742 16.1663 20.037 16.2707 19.9856 16.3599C19.9342 16.449 19.8697 16.5208 19.7968 16.57C19.7239 16.6192 19.6443 16.6447 19.5638 16.6446H19.3903V15.0597H19.4868C19.6257 15.0512 19.7624 15.1111 19.8743 15.2295C19.9863 15.3479 20.0668 15.5177 20.1025 15.7109ZM10.321 11.7309H17.3868C17.5637 11.7316 17.7333 11.8331 17.8584 12.0132C17.9836 12.1932 18.0541 12.4372 18.0546 12.6918V13.1379H9.65316V12.6918C9.65367 12.4372 9.7242 12.1932 9.84933 12.0132C9.97447 11.8331 10.144 11.7316 10.321 11.7309ZM7.60525 15.71C7.64115 15.517 7.72171 15.3474 7.83365 15.2291C7.94558 15.1109 8.08219 15.0511 8.22092 15.0597H8.31748V16.6446H8.14398C8.06339 16.6447 7.98379 16.6191 7.91084 16.5699C7.8379 16.5206 7.77341 16.4487 7.72196 16.3595C7.67052 16.2702 7.63339 16.1658 7.61322 16.0535C7.59304 15.9412 7.59032 15.8239 7.60525 15.71Z" fill="black"/>
<path d="M21.6267 41.5876C21.5417 41.5558 21.4531 41.5484 21.3661 41.5659C21.2791 41.5834 21.1953 41.6253 21.1196 41.6895C21.0439 41.7536 20.9777 41.8385 20.9248 41.9395C20.872 42.0404 20.8335 42.1554 20.8115 42.2778C20.7896 42.4002 20.7846 42.5276 20.7969 42.6528C20.8092 42.7779 20.8386 42.8984 20.8833 43.0072C20.928 43.116 20.9871 43.2111 21.0574 43.287C21.1277 43.3628 21.2077 43.418 21.2928 43.4494C24.5361 44.6524 25.6872 46.3087 25.6872 47.3615C25.6872 49.5086 21.1852 52.503 13.8533 52.503C6.52135 52.503 2.01929 49.5086 2.01929 47.3615C2.01929 46.3152 3.17041 44.6627 6.41502 43.4484C6.4999 43.4166 6.57959 43.3611 6.64955 43.285C6.71951 43.2089 6.77836 43.1137 6.82276 43.0049C6.86715 42.896 6.89621 42.7757 6.90827 42.6507C6.92034 42.5257 6.91517 42.3985 6.89308 42.2764C6.87098 42.1543 6.83238 42.0396 6.77949 41.9389C6.72659 41.8383 6.66044 41.7536 6.5848 41.6897C6.50916 41.6259 6.42551 41.584 6.33864 41.5667C6.25177 41.5493 6.16337 41.5567 6.0785 41.5885C2.59971 42.891 0.683594 44.9405 0.683594 47.3615C0.683614 51.9494 7.46898 54.4249 13.8533 54.4249C20.2375 54.4249 27.0229 51.9494 27.0229 47.3616C27.0229 44.9302 25.1061 42.8798 21.6267 41.5876Z" fill="black"/>
</svg>
