<svg width="386" height="22" viewBox="0 0 386 22" fill="none" xmlns="http://www.w3.org/2000/svg">
<path d="M6.354 4.274C8.142 4.274 9.516 4.826 10.476 5.93C11.448 7.034 11.934 8.618 11.934 10.682C11.934 12.746 11.448 14.336 10.476 15.452C9.516 16.556 8.142 17.108 6.354 17.108C4.542 17.108 3.15 16.556 2.178 15.452C1.218 14.336 0.738 12.746 0.738 10.682C0.738 8.618 1.218 7.034 2.178 5.93C3.15 4.826 4.542 4.274 6.354 4.274ZM6.354 6.722C5.562 6.722 4.992 7.034 4.644 7.658C4.296 8.27 4.122 9.278 4.122 10.682C4.122 12.098 4.296 13.118 4.644 13.742C4.992 14.354 5.562 14.66 6.354 14.66C7.122 14.66 7.68 14.348 8.028 13.724C8.388 13.1 8.568 12.086 8.568 10.682C8.568 9.278 8.388 8.27 8.028 7.658C7.68 7.034 7.122 6.722 6.354 6.722ZM14.5463 13.832C14.9063 14.096 15.3083 14.3 15.7523 14.444C16.1963 14.576 16.6583 14.642 17.1383 14.642C18.0983 14.642 18.8243 14.354 19.3163 13.778C19.8083 13.19 20.0423 12.368 20.0183 11.312C19.3823 12.224 18.4043 12.68 17.0843 12.68C16.2803 12.68 15.5783 12.512 14.9783 12.176C14.3783 11.828 13.9103 11.348 13.5743 10.736C13.2503 10.112 13.0883 9.392 13.0883 8.576C13.0883 7.7 13.2803 6.938 13.6643 6.29C14.0483 5.63 14.5883 5.126 15.2843 4.778C15.9803 4.418 16.7903 4.238 17.7143 4.238C18.8183 4.238 19.7723 4.49 20.5763 4.994C21.3803 5.498 21.9983 6.218 22.4303 7.154C22.8623 8.09 23.0783 9.2 23.0783 10.484C23.0783 11.816 22.8383 12.986 22.3583 13.994C21.8903 15.002 21.2243 15.782 20.3603 16.334C19.4963 16.874 18.4883 17.144 17.3363 17.144C16.6403 17.144 15.9323 17.048 15.2123 16.856C14.4923 16.664 13.8683 16.412 13.3403 16.1L14.5463 13.832ZM17.8403 6.83C17.2763 6.83 16.8383 6.986 16.5263 7.298C16.2143 7.598 16.0583 8.03 16.0583 8.594C16.0583 9.134 16.2083 9.56 16.5083 9.872C16.8083 10.172 17.2343 10.322 17.7863 10.322C18.3863 10.322 18.8483 10.16 19.1723 9.836C19.5083 9.5 19.6763 9.068 19.6763 8.54C19.6763 8.048 19.5203 7.64 19.2083 7.316C18.8963 6.992 18.4403 6.83 17.8403 6.83ZM26.1726 8.684C26.6286 8.684 27.0006 8.828 27.2886 9.116C27.5766 9.404 27.7206 9.776 27.7206 10.232C27.7206 10.688 27.5766 11.066 27.2886 11.366C27.0006 11.654 26.6286 11.798 26.1726 11.798C25.7286 11.798 25.3626 11.654 25.0746 11.366C24.7866 11.066 24.6426 10.688 24.6426 10.232C24.6426 9.776 24.7806 9.404 25.0566 9.116C25.3446 8.828 25.7166 8.684 26.1726 8.684ZM26.1726 14.03C26.6286 14.03 27.0006 14.174 27.2886 14.462C27.5766 14.75 27.7206 15.122 27.7206 15.578C27.7206 16.034 27.5766 16.412 27.2886 16.712C27.0006 17 26.6286 17.144 26.1726 17.144C25.7286 17.144 25.3626 17 25.0746 16.712C24.7866 16.412 24.6426 16.034 24.6426 15.578C24.6426 15.122 24.7806 14.75 25.0566 14.462C25.3446 14.174 25.7166 14.03 26.1726 14.03ZM38.6847 14.354V17H29.0727L29.0547 14.822L33.6447 10.106C34.0047 9.734 34.2987 9.362 34.5267 8.99C34.7547 8.618 34.8687 8.3 34.8687 8.036C34.8687 7.688 34.7427 7.424 34.4907 7.244C34.2387 7.052 33.8847 6.956 33.4287 6.956C32.9247 6.956 32.3607 7.1 31.7367 7.388C31.1247 7.664 30.5307 8.054 29.9547 8.558L28.6947 6.128C30.4347 4.868 32.1807 4.238 33.9327 4.238C34.7727 4.238 35.5227 4.376 36.1827 4.652C36.8547 4.928 37.3767 5.318 37.7487 5.822C38.1327 6.326 38.3247 6.902 38.3247 7.55C38.3247 8.198 38.1087 8.87 37.6767 9.566C37.2567 10.25 36.6567 10.982 35.8767 11.762L33.3027 14.354H38.6847ZM39.0171 4.382H44.7411V17H41.4471V7.082H39.0171V4.382Z" fill="black"/>
<g clip-path="url(#clip0_97_2417)">
<path d="M313.265 10.1087H310V19.032H313.265V10.1087Z" fill="black"/>
<path d="M317.681 6.46268H314.416V19.032H317.681V6.46268Z" fill="black"/>
<path d="M322.065 4H318.8V19H322.065V4Z" fill="black"/>
<path d="M335.624 15.8976L337.52 17.8486C339.2 16.3134 341.718 16.3774 343.336 17.9765L345.232 16.0256C342.62 13.339 338.36 13.307 335.624 15.8976Z" fill="black"/>
<path d="M332.421 12.6034L334.318 14.5544C337.738 11.2281 343.18 11.2601 346.538 14.6823L348.435 12.7313C344.051 8.22175 336.93 8.18976 332.421 12.6034Z" fill="black"/>
<path d="M329.466 9.53304L331.394 11.516C336.463 6.49466 344.548 6.52664 349.555 11.6439L351.452 9.69295C345.388 3.48826 335.592 3.45628 329.466 9.53304Z" fill="black"/>
<path d="M386 8.31771H382.144V4.99149H360.687V19H382.144V15.6738H386V8.31771Z" fill="black"/>
</g>
<defs>
<clipPath id="clip0_97_2417">
<rect width="76" height="15" fill="white" transform="translate(310 4)"/>
</clipPath>
</defs>
</svg>
