<svg width="35" height="35" viewBox="0 0 35 35" fill="none" xmlns="http://www.w3.org/2000/svg">
<g clip-path="url(#clip0_249_5606)">
<path d="M4.10315 23.3728C5.04389 25.9224 6.46663 28.1392 8.33236 29.9612C10.456 32.0349 13.2369 33.6828 16.5977 34.8582C16.708 34.8967 16.8231 34.9282 16.9387 34.9514C17.0914 34.9816 17.2469 34.9979 17.4009 35H17.4311C17.5953 35 17.7604 34.9835 17.924 34.9514C18.0397 34.9282 18.1531 34.8967 18.2629 34.859C21.6277 33.6854 24.412 32.0384 26.5379 29.9646C28.4044 28.1427 29.8269 25.9272 30.7663 23.3776C32.4745 18.7419 32.3773 13.6353 32.299 9.53158L32.2977 9.46856C32.2819 9.1297 32.2718 8.77375 32.2662 8.38069C32.2376 6.45087 30.7032 4.8543 28.7732 4.74669C24.749 4.52212 21.636 3.20967 18.9761 0.617085L18.9529 0.595723C18.5112 0.19064 17.9547 -0.00802959 17.4009 0.000248343C16.8669 0.00719112 16.3349 0.205594 15.909 0.595723L15.8863 0.617085C13.2259 3.20967 10.1129 4.52212 6.08878 4.74669C4.15869 4.8543 2.62434 6.45087 2.59577 8.38069C2.59016 8.77642 2.58002 9.13184 2.56426 9.46856L2.56346 9.49527C2.48549 13.6067 2.38882 18.7235 4.10315 23.3728Z" fill="#00DD80"/>
<path d="M4.10316 23.3728C5.0439 25.9224 6.46663 28.1392 8.33237 29.9612C10.456 32.0349 13.2369 33.6828 16.5977 34.8582C16.708 34.8967 16.8231 34.9282 16.9387 34.9514C17.0915 34.9816 17.2469 34.9979 17.4009 35V0.000244141C16.8669 0.00718691 16.335 0.205589 15.909 0.595719L15.8864 0.617081C13.2259 3.20967 10.1129 4.52211 6.08879 4.74669C4.1587 4.8543 2.62435 6.45086 2.59578 8.38068C2.59017 8.77642 2.58003 9.13184 2.56427 9.46856L2.56347 9.49526C2.4855 13.6067 2.38883 18.7235 4.10316 23.3728Z" fill="#00AA63"/>
<path d="M8.70885 17.5001C8.70885 22.2994 12.6056 26.2061 17.4009 26.2232H17.4316C22.2411 26.2232 26.1547 22.3098 26.1547 17.5001C26.1547 12.6907 22.2411 8.77734 17.4316 8.77734H17.4009C12.6056 8.79443 8.70885 12.7011 8.70885 17.5001Z" fill="white"/>
<path d="M8.70888 17.5001C8.70888 22.2994 12.6056 26.2061 17.4009 26.2232V8.77734C12.6056 8.79443 8.70888 12.7011 8.70888 17.5001Z" fill="#E1EBF0"/>
<path d="M13.4724 16.2438L17.4009 20.1729L18.2498 21.0218C18.4504 21.2223 18.7134 21.3225 18.9761 21.3225C19.2392 21.3225 19.5019 21.2223 19.7027 21.0218L21.5279 19.1958C21.9289 18.7948 21.9289 18.1451 21.5279 17.7437C21.1273 17.3427 20.4768 17.3427 20.0758 17.7437L18.9761 18.8434L14.9245 14.7917C14.5234 14.3904 13.8729 14.3904 13.4724 14.7917C13.0713 15.1928 13.0713 15.8433 13.4724 16.2438Z" fill="#B4D2D7"/>
<path d="M13.4724 16.2438L17.4009 20.1729V17.2679L14.9245 14.7917C14.5234 14.3904 13.873 14.3904 13.4724 14.7917C13.0713 15.1928 13.0713 15.8433 13.4724 16.2438Z" fill="#6FA5AA"/>
</g>
<defs>
<clipPath id="clip0_249_5606">
<rect width="35" height="35" fill="white" transform="matrix(-1 0 0 1 35 0)"/>
</clipPath>
</defs>
</svg>
