<svg width="20" height="19" viewBox="0 0 20 19" fill="none" xmlns="http://www.w3.org/2000/svg">
<g opacity="0.4" clip-path="url(#clip0_219_4171)">
<path d="M10.0001 0C15.5229 0 20 4.25326 20 9.49994C20 14.7466 15.5229 19.0001 10.0001 19.0001C4.47723 19.0001 -6.10352e-05 14.7466 -6.10352e-05 9.49994C0.00616455 4.25569 4.47961 0.00591428 10.0001 0ZM10.0001 1.90006C6.70526 1.88945 3.74481 3.8102 2.55609 6.72926C4.89526 5.72905 7.43494 5.22268 10.0001 5.24477C12.565 5.22268 15.1047 5.72905 17.4438 6.72926C16.2551 3.8102 13.2947 1.88945 10.0001 1.90006ZM11.6469 16.9372C15.1283 16.2309 17.7033 13.4295 17.9706 10.0571C14.9844 10.0571 11.6469 13.8344 11.6469 16.9372ZM10.0001 10.9249C10.8284 10.9249 11.5001 10.2871 11.5001 9.49994C11.5001 8.71299 10.8284 8.07494 10.0001 8.07494C9.17151 8.07494 8.50006 8.71299 8.50006 9.49994C8.50006 10.2871 9.17151 10.9249 10.0001 10.9249ZM8.35303 16.9372C8.35303 13.8344 5.01556 10.0571 2.02911 10.0571C2.29663 13.4295 4.87164 16.2309 8.35303 16.9372Z" fill="black"/>
</g>
<defs>
<clipPath id="clip0_219_4171">
<rect width="20" height="19" fill="white" transform="matrix(-1 0 0 1 20 0)"/>
</clipPath>
</defs>
</svg>
