<svg width="41" height="41" viewBox="0 0 41 41" fill="none" xmlns="http://www.w3.org/2000/svg">
<g clip-path="url(#clip0_229_4221)">
<path d="M34.5607 13.8068V6.25876C34.5607 1.91978 31.5325 0.383057 28.685 0.383057H11.781C8.93358 0.383057 5.90533 1.91978 5.90533 6.25876V13.8068C3.82624 14.3492 2.28951 16.2023 2.28951 18.4622V30.5751C2.28951 34.1458 4.68499 35.5469 7.03528 35.6825V38.7559C7.03528 39.6599 7.75844 40.3831 8.66239 40.3831H10.3347C11.2387 40.3831 11.9618 39.6599 11.9618 38.7559V35.6825H28.5494V38.7559C28.5494 39.6599 29.2726 40.3831 30.1765 40.3831H31.8488C32.7528 40.3831 33.476 39.6599 33.476 38.7559V35.6825C36.9562 35.5017 38.2217 32.9706 38.2217 30.5751V18.417C38.1313 16.2023 36.5946 14.304 34.5607 13.8068ZM7.53245 6.25876C7.53245 2.55255 10.1991 1.96498 11.781 1.96498H28.685C30.2669 1.96498 32.9336 2.50735 32.9336 6.21356V13.626C30.4929 13.852 28.5494 15.8859 28.5494 18.417V19.5469H11.9166V18.417C11.9166 15.8859 9.97313 13.852 7.53245 13.626V6.25876ZM28.5042 21.174V26.7785H11.9166V21.174H28.5042ZM10.3347 38.7559H8.66239V35.6825H10.3347V38.7559ZM31.8036 38.7559H30.1313V35.6825H31.8036V38.7559ZM36.5946 30.5751H36.5494C36.5494 32.1571 35.9618 34.1006 33.024 34.1006H31.8036H30.1313H10.3347H8.66239H7.44206C5.86013 34.1006 3.91663 33.513 3.91663 30.5751V18.417C3.91663 16.6542 5.36296 15.2079 7.12567 15.2079C8.88838 15.2079 10.3347 16.6542 10.3347 18.417V27.5921C10.3347 28.0441 10.6963 28.4057 11.1483 28.4057H29.363C29.8149 28.4057 30.1765 28.0441 30.1765 27.5921V18.417C30.1765 16.6542 31.6228 15.2079 33.3856 15.2079C35.1483 15.2079 36.5946 16.6542 36.5946 18.417V30.5751Z" fill="#656161"/>
<g clip-path="url(#clip1_229_4221)">
<path opacity="0.3" fill-rule="evenodd" clip-rule="evenodd" d="M20.9895 13.2149V14.1165H21.5886C21.9939 14.1165 22.3225 14.4452 22.3225 14.8505C22.3225 15.2557 21.9939 15.5844 21.5886 15.5844H20.9895V16.266C20.9895 16.6713 20.6609 17 20.2556 17C19.8503 17 19.5216 16.6713 19.5216 16.266V15.5844H18.9223C18.5172 15.5844 18.1884 15.2557 18.1884 14.8505C18.1884 14.4453 18.5172 14.1165 18.9223 14.1165H19.5216V13.2149C17.2949 12.8599 15.619 10.9249 15.619 8.63661C15.619 6.0798 17.6987 4 20.2556 4C22.8124 4 24.8923 6.07977 24.8923 8.63661C24.8923 10.9249 23.2163 12.8599 20.9895 13.2149ZM17.0867 8.63661C17.0867 10.3836 18.5086 11.8053 20.2555 11.8053C22.0026 11.8053 23.4243 10.3837 23.4243 8.63661C23.4243 6.88955 22.0025 5.46791 20.2555 5.46791C18.5086 5.46791 17.0867 6.88961 17.0867 8.63661Z" fill="#3F373B"/>
</g>
</g>
<defs>
<clipPath id="clip0_229_4221">
<rect width="40" height="40" fill="white" transform="translate(0.255615 0.383057)"/>
</clipPath>
<clipPath id="clip1_229_4221">
<rect width="13" height="13" fill="white" transform="translate(13.7556 4)"/>
</clipPath>
</defs>
</svg>
