<svg width="59" height="36" viewBox="0 0 59 36" fill="none" xmlns="http://www.w3.org/2000/svg">
<path d="M52.905 0.150538C56.2187 0.161192 58.8964 2.85611 58.8857 6.1698L58.812 29.0895C58.8014 32.4032 56.1065 35.0808 52.7928 35.0702L5.98071 34.9197C2.66702 34.909 -0.0106222 32.2141 3.16827e-05 28.9004L0.0737213 5.98071C0.0843752 2.66702 2.77929 -0.0106222 6.09298 3.16827e-05L52.905 0.150538Z" fill="#D9D9D9"/>
<path d="M5.35267 7.52165C6.24083 7.52451 6.9585 8.24681 6.95564 9.13497L6.90209 25.7907C6.89924 26.6789 6.17693 27.3965 5.28878 27.3937C4.40063 27.3908 3.68296 26.6685 3.68581 25.7804L3.73936 9.12462C3.74222 8.23647 4.46452 7.5188 5.35267 7.52165Z" fill="white"/>
</svg>
